<?xml version="1.0" standalone="no"?>
<!DOCTYPE svg PUBLIC "-//W3C//DTD SVG 20010904//EN"
 "http://www.w3.org/TR/2001/REC-SVG-20010904/DTD/svg10.dtd">
<svg version="1.0" xmlns="http://www.w3.org/2000/svg"
 width="1280.000000pt" height="1280.000000pt" viewBox="0 0 1280.000000 1280.000000"
 preserveAspectRatio="xMidYMid meet">
<metadata>
Created by potrace 1.14, written by Peter Selinger 2001-2017
</metadata>
<g transform="translate(0.000000,1280.000000) scale(0.100000,-0.100000)"
fill="#000000" stroke="none">
<path d="M2525 9870 c-5 -9 -4 -11 3 -6 7 4 12 2 12 -3 0 -6 -12 -11 -27 -11
-16 0 -23 -4 -17 -8 6 -4 14 -16 17 -27 7 -19 6 -19 -7 -2 -13 17 -14 16 -12
-8 0 -15 6 -23 13 -21 7 3 10 -1 6 -9 -3 -8 -9 -12 -14 -9 -5 3 -9 0 -9 -5 0
-6 6 -11 13 -11 8 0 7 -4 -3 -10 -13 -8 -13 -10 2 -10 9 0 19 -4 22 -9 4 -5
-4 -7 -16 -4 -14 3 -18 1 -12 -4 6 -4 16 -19 23 -33 l12 -25 -18 23 -19 23 0
-25 c0 -13 3 -23 7 -20 4 2 9 -3 13 -11 3 -8 0 -17 -6 -21 -7 -5 -8 -2 -3 7 5
8 4 11 -1 6 -11 -11 -13 -108 -2 -101 4 3 8 0 8 -5 0 -6 -6 -11 -12 -11 -10 0
-9 -3 1 -9 11 -7 11 -9 0 -14 -10 -4 -9 -6 3 -6 9 -1 19 -5 22 -10 4 -5 -4 -7
-16 -4 -14 3 -18 1 -12 -4 6 -4 16 -19 23 -33 l12 -25 -18 23 -19 23 0 -25 c0
-13 3 -23 7 -20 4 2 9 -3 13 -11 3 -8 0 -17 -6 -21 -7 -5 -8 -2 -3 7 5 8 4 11
-1 6 -11 -11 -13 -108 -2 -101 4 3 8 0 8 -5 0 -6 -6 -11 -12 -11 -10 0 -9 -3
1 -9 11 -7 11 -9 0 -14 -10 -4 -9 -6 3 -6 9 -1 19 -5 22 -10 4 -5 -4 -7 -16
-4 -14 3 -18 1 -12 -4 6 -4 16 -19 23 -33 l12 -25 -18 23 -19 23 0 -25 c0 -13
3 -23 7 -20 4 2 9 -3 13 -11 3 -8 0 -17 -6 -21 -7 -5 -8 -2 -3 7 5 8 4 11 -1
6 -11 -11 -13 -108 -2 -101 4 3 8 0 8 -5 0 -6 -6 -11 -12 -11 -10 0 -9 -3 1
-9 11 -7 11 -9 0 -14 -10 -4 -9 -6 3 -6 9 -1 19 -5 22 -10 4 -5 -4 -7 -16 -4
-14 3 -18 1 -12 -4 6 -4 16 -19 23 -33 l12 -25 -18 23 -19 23 0 -25 c0 -13 3
-23 7 -20 4 2 9 -3 13 -11 3 -8 0 -17 -6 -21 -7 -5 -8 -2 -3 7 5 8 4 11 -1 6
-11 -11 -13 -108 -2 -101 4 3 8 0 8 -5 0 -6 -6 -11 -12 -11 -10 0 -9 -3 1 -9
11 -7 11 -9 0 -14 -10 -4 -9 -6 3 -6 9 -1 19 -5 22 -10 4 -5 -4 -7 -16 -4 -14
3 -18 1 -12 -4 6 -4 16 -19 23 -33 l12 -25 -18 23 -19 23 0 -25 c0 -13 3 -23
7 -20 4 2 9 -3 13 -11 3 -8 0 -17 -6 -21 -7 -5 -8 -2 -3 7 5 8 4 11 -1 6 -11
-11 -13 -108 -2 -101 4 3 8 0 8 -5 0 -6 -6 -11 -12 -11 -10 0 -9 -3 1 -9 11
-7 11 -9 0 -14 -10 -4 -9 -6 3 -6 9 -1 19 -5 22 -10 4 -5 -4 -7 -16 -4 -14 3
-18 1 -12 -4 6 -4 16 -19 23 -33 l12 -25 -18 23 -19 23 0 -25 c0 -13 3 -23 7
-20 4 2 9 -3 13 -11 3 -8 0 -17 -6 -21 -7 -5 -8 -2 -3 7 5 8 4 11 -1 6 -11
-11 -13 -108 -2 -101 4 3 8 0 8 -5 0 -6 -6 -11 -12 -11 -10 0 -9 -3 1 -9 11
-7 11 -9 0 -14 -10 -4 -9 -6 3 -6 9 -1 19 -5 22 -10 4 -5 -4 -7 -16 -4 -14 3
-18 1 -12 -4 6 -4 16 -19 23 -33 l12 -25 -18 23 -19 23 0 -25 c0 -13 3 -23 7
-20 4 2 9 -3 13 -11 3 -8 0 -17 -6 -21 -7 -5 -8 -2 -3 7 5 8 4 11 -1 6 -11
-11 -13 -108 -2 -101 4 3 8 0 8 -5 0 -6 -6 -11 -12 -11 -10 0 -9 -3 1 -9 11
-7 11 -9 0 -14 -10 -4 -9 -6 3 -6 9 -1 19 -5 22 -10 4 -5 -4 -7 -16 -4 -14 3
-18 1 -12 -4 6 -4 16 -19 23 -33 l12 -25 -18 23 -19 23 0 -25 c0 -13 3 -23 7
-20 4 2 9 -3 13 -11 3 -8 0 -17 -6 -21 -7 -5 -8 -2 -3 7 5 8 4 11 -1 6 -11
-11 -13 -108 -2 -101 4 3 8 0 8 -5 0 -6 -6 -11 -12 -11 -10 0 -9 -3 1 -9 11
-7 11 -9 0 -14 -10 -4 -9 -6 3 -6 9 -1 19 -5 22 -10 4 -5 -4 -7 -16 -4 -14 3
-18 1 -12 -4 6 -4 16 -19 23 -33 l12 -25 -18 23 -19 23 0 -25 c0 -13 3 -23 7
-20 4 2 9 -3 13 -11 3 -8 0 -17 -6 -21 -7 -5 -8 -2 -3 7 5 8 4 11 -1 6 -11
-11 -13 -108 -2 -101 4 3 8 0 8 -5 0 -6 -6 -11 -12 -11 -10 0 -9 -3 1 -9 11
-7 11 -9 0 -14 -10 -4 -9 -6 3 -6 9 -1 19 -5 22 -10 4 -5 -4 -7 -16 -4 -14 3
-18 1 -12 -4 6 -4 16 -19 23 -33 l12 -25 -18 23 -19 23 0 -25 c0 -13 3 -23 7
-20 4 2 9 -3 13 -11 3 -8 0 -17 -6 -21 -7 -5 -8 -2 -3 7 5 8 4 11 -1 6 -11
-11 -13 -108 -2 -101 4 3 8 0 8 -5 0 -6 -6 -11 -12 -11 -10 0 -9 -3 1 -9 11
-7 11 -9 0 -14 -10 -4 -9 -6 3 -6 9 -1 19 -5 22 -10 4 -5 -4 -7 -16 -4 -14 3
-18 1 -12 -4 6 -4 16 -19 23 -33 l12 -25 -18 23 -19 23 0 -25 c0 -13 3 -23 7
-20 4 2 9 -3 13 -11 3 -8 0 -17 -6 -21 -7 -5 -8 -2 -3 7 5 8 4 11 -1 6 -11
-11 -13 -108 -2 -101 4 3 8 0 8 -5 0 -6 -6 -11 -12 -11 -10 0 -9 -3 1 -9 11
-7 11 -9 0 -14 -10 -4 -9 -6 3 -6 9 -1 19 -5 22 -10 4 -5 -4 -7 -16 -4 -14 3
-18 1 -12 -4 6 -4 16 -19 23 -33 l12 -25 -18 23 -19 23 0 -25 c0 -13 3 -23 7
-20 4 2 9 -3 13 -11 3 -8 0 -17 -6 -21 -7 -5 -8 -2 -3 7 5 8 4 11 -1 6 -11
-11 -13 -108 -2 -101 4 3 8 0 8 -5 0 -6 -6 -11 -12 -11 -10 0 -9 -3 1 -9 11
-7 11 -9 0 -14 -10 -4 -9 -6 3 -6 9 -1 19 -5 22 -10 4 -5 -4 -7 -16 -4 -14 3
-18 1 -12 -4 6 -4 16 -19 23 -33 l12 -25 -18 23 -19 23 0 -25 c0 -13 3 -23 7
-20 4 2 9 -3 13 -11 3 -8 0 -17 -6 -21 -7 -5 -8 -2 -3 7 5 8 4 11 -1 6 -11
-11 -13 -108 -2 -101 4 3 8 0 8 -5 0 -6 -6 -11 -12 -11 -10 0 -9 -3 1 -9 11
-7 11 -9 0 -14 -10 -4 -9 -6 3 -6 9 -1 19 -5 22 -10 4 -5 -4 -7 -16 -4 -14 3
-18 1 -12 -4 6 -4 16 -19 23 -33 l12 -25 -18 23 -19 23 0 -25 c0 -13 3 -23 7
-20 4 2 9 -3 13 -11 3 -8 0 -17 -6 -21 -7 -5 -8 -2 -3 7 5 8 4 11 -1 6 -11
-11 -13 -108 -2 -101 4 3 8 0 8 -5 0 -6 -6 -11 -12 -11 -10 0 -9 -3 1 -9 11
-7 11 -9 0 -14 -10 -4 -9 -6 3 -6 9 -1 19 -5 22 -10 4 -5 -4 -7 -16 -4 -14 3
-18 1 -12 -4 6 -4 16 -19 23 -33 l12 -25 -18 23 -19 23 0 -25 c0 -13 3 -23 7
-20 4 2 9 -3 13 -11 3 -8 0 -17 -6 -21 -7 -5 -8 -2 -3 7 5 8 4 11 -1 6 -11
-11 -13 -108 -2 -101 4 3 8 0 8 -5 0 -6 -6 -11 -12 -11 -10 0 -9 -3 1 -9 11
-7 11 -9 0 -14 -10 -4 -9 -6 3 -6 9 -1 19 -5 22 -10 4 -5 -4 -7 -16 -4 -14 3
-18 1 -12 -4 6 -4 16 -19 23 -33 l12 -25 -18 23 -19 23 0 -25 c0 -13 3 -23 7
-20 4 2 9 -3 13 -11 3 -8 0 -17 -6 -21 -7 -5 -8 -2 -3 7 5 8 4 11 -1 6 -11
-11 -13 -108 -2 -101 4 3 8 0 8 -5 0 -6 -6 -11 -12 -11 -10 0 -9 -3 1 -9 11
-7 11 -9 0 -14 -10 -4 -9 -6 3 -6 9 -1 19 -5 22 -10 4 -5 -4 -7 -16 -4 -14 3
-18 1 -12 -4 6 -4 16 -19 23 -33 l12 -25 -18 23 -19 23 0 -25 c0 -13 3 -23 7
-20 4 2 9 -3 13 -11 3 -8 0 -17 -6 -21 -7 -5 -8 -2 -3 7 5 8 4 11 -1 6 -11
-11 -13 -108 -2 -101 4 3 8 0 8 -5 0 -6 -6 -11 -12 -11 -10 0 -9 -3 1 -9 11
-7 11 -9 0 -14 -10 -4 -9 -6 3 -6 9 -1 19 -5 22 -10 4 -5 -4 -7 -16 -4 -14 3
-18 1 -12 -4 6 -4 16 -19 23 -33 l12 -25 -18 23 -19 23 0 -25 c0 -13 3 -23 7
-20 4 2 9 -3 13 -11 3 -8 0 -17 -6 -21 -7 -5 -8 -2 -3 7 5 8 4 11 -1 6 -11
-11 -13 -108 -2 -101 4 3 8 0 8 -5 0 -6 -6 -11 -12 -11 -10 0 -9 -3 1 -9 11
-7 11 -9 0 -14 -10 -4 -9 -6 3 -6 9 -1 19 -5 22 -10 4 -5 -4 -7 -16 -4 -14 3
-18 1 -12 -4 6 -4 16 -19 23 -33 l12 -25 -18 23 -19 23 0 -25 c0 -13 3 -23 7
-20 4 2 9 -3 13 -11 3 -8 0 -17 -6 -21 -7 -5 -8 -2 -3 7 5 8 4 11 -1 6 -11
-11 -12 -137 -1 -137 5 0 5 -4 2 -10 -3 -5 -8 -20 -10 -32 -4 -22 -3 -22 9 -5
8 10 17 14 20 8 3 -5 0 -11 -6 -14 -10 -3 -10 -8 2 -23 14 -18 14 -18 -3 -5
-9 8 -21 11 -24 7 -4 -4 -1 -11 6 -15 8 -5 10 -14 5 -22 -11 -18 -12 -119 -1
-119 4 0 6 9 2 19 -7 22 10 37 21 20 5 -8 3 -9 -6 -4 -10 6 -12 4 -6 -10 4
-11 0 -26 -11 -38 -11 -12 -12 -17 -4 -12 11 6 13 4 8 -9 -4 -10 -7 -20 -7
-22 0 -3 -5 -2 -12 2 -7 4 -8 3 -4 -5 6 -8 12 -9 20 -2 9 8 12 6 11 -9 -1 -11
-5 -23 -10 -27 -4 -5 -5 -2 -1 5 4 6 2 12 -3 12 -14 0 -14 -17 -1 -25 6 -4 7
-12 3 -18 -15 -21 -1 -87 18 -87 6 0 8 -4 4 -9 -3 -5 0 -13 6 -17 7 -4 9 -3 5
4 -3 6 -2 13 4 17 5 3 10 1 10 -5 0 -6 5 -8 12 -4 8 5 9 2 5 -10 -4 -9 -3 -14
2 -11 5 3 12 1 16 -5 4 -6 10 -8 15 -5 5 3 11 1 15 -4 3 -6 12 -8 20 -5 8 4
12 11 8 17 -3 6 -1 7 5 3 6 -4 8 -14 5 -23 -4 -10 -2 -14 4 -10 5 4 19 0 29
-7 14 -10 24 -11 38 -4 16 9 18 7 13 -6 -4 -10 -3 -15 3 -11 6 3 10 0 10 -7 0
-9 3 -9 10 2 7 11 10 11 10 2 0 -7 4 -11 9 -7 5 3 13 0 17 -6 5 -9 11 -6 22 7
14 18 14 18 8 -1 -6 -21 -1 -23 57 -25 9 -1 15 -5 12 -9 -2 -5 4 -11 15 -14
11 -3 23 0 27 5 4 7 1 8 -7 3 -9 -5 -11 -4 -6 4 4 6 12 9 17 5 5 -3 7 -9 4
-14 -3 -4 7 -11 20 -14 15 -4 23 -11 19 -17 -3 -6 6 -3 21 7 28 18 28 18 17
-3 -10 -19 -9 -20 10 -15 16 4 19 2 13 -9 -8 -12 -6 -12 8 0 13 10 17 10 17 1
0 -9 4 -9 13 -2 14 12 40 -3 50 -28 4 -11 6 -10 6 5 1 16 3 17 10 5 6 -8 7
-18 4 -24 -3 -5 -1 -6 5 -2 5 3 13 0 16 -6 3 -7 4 -2 1 12 -3 14 -2 20 1 13 3
-6 17 -9 32 -7 20 3 23 2 12 -5 -8 -5 -18 -7 -24 -4 -5 3 -6 1 -2 -6 4 -6 12
-9 17 -6 5 3 18 -3 30 -14 13 -12 30 -18 46 -15 17 3 22 1 18 -7 -6 -8 -2 -8
14 0 16 9 21 9 19 0 -2 -7 12 -16 30 -19 24 -6 30 -4 25 4 -5 7 3 0 17 -15 17
-18 32 -26 48 -23 14 2 21 0 17 -6 -3 -6 1 -7 9 -4 9 3 16 1 16 -6 0 -6 5 -8
10 -5 6 4 8 10 5 15 -3 5 0 12 6 16 7 4 10 3 7 -2 -3 -5 -2 -18 3 -29 l8 -20
1 20 c1 19 2 19 9 1 4 -11 18 -21 31 -23 13 -2 30 -9 39 -16 8 -6 12 -7 8 -1
-3 6 1 11 9 11 8 0 13 -6 10 -13 -3 -8 0 -16 6 -20 7 -4 8 -3 4 4 -4 7 -3 12
3 12 5 0 13 -5 16 -10 4 -6 10 -8 15 -5 5 3 12 0 15 -6 4 -5 13 -8 21 -5 8 3
14 0 14 -5 0 -7 11 -9 25 -7 18 4 25 1 25 -10 0 -8 3 -12 7 -9 3 4 17 0 30 -8
27 -18 31 -9 6 12 -17 13 -16 13 3 4 11 -5 26 -17 34 -26 10 -12 16 -13 27 -4
11 10 12 8 7 -7 -4 -10 -4 -16 1 -12 4 4 17 2 29 -5 21 -12 46 -17 79 -18 11
0 15 -5 10 -12 -4 -7 2 -5 12 3 17 14 18 13 12 -3 -5 -15 -4 -16 13 -7 28 15
37 12 14 -5 -14 -11 -15 -14 -3 -9 10 3 20 1 23 -5 4 -6 13 -8 21 -5 8 3 22
-1 30 -10 12 -12 21 -13 35 -6 16 8 18 8 14 -5 -5 -11 1 -15 24 -15 17 0 32
-5 34 -10 2 -6 13 -12 26 -15 12 -2 27 -7 34 -11 7 -4 8 -3 4 4 -4 7 -2 12 3
12 6 0 11 -8 11 -17 0 -13 3 -14 12 -5 16 16 28 15 28 -2 0 -8 7 -17 16 -20
10 -4 13 -2 8 7 -4 6 -4 9 1 5 4 -4 13 -3 20 2 8 7 12 5 12 -5 0 -8 -4 -12 -9
-9 -4 3 -8 0 -8 -6 0 -7 8 -9 21 -5 14 5 19 4 15 -4 -5 -7 -1 -9 8 -5 9 4 16
1 16 -6 0 -9 4 -9 17 1 10 8 14 9 10 2 -4 -6 -3 -14 3 -18 5 -3 10 1 10 10 0
9 4 14 10 10 5 -3 6 -13 3 -23 -5 -13 -3 -14 7 -5 9 8 17 7 31 -5 11 -10 24
-18 29 -18 6 -1 12 -3 15 -4 13 -6 31 -5 42 2 7 6 14 4 19 -3 4 -7 3 -9 -3 -6
-5 3 -10 0 -10 -7 0 -8 7 -12 15 -9 8 3 18 0 24 -8 8 -11 9 -10 4 4 -3 9 -1
17 4 17 6 0 10 -6 10 -14 0 -21 28 -28 33 -8 4 14 5 14 6 1 0 -9 12 -21 26
-27 35 -16 43 -15 19 3 -18 14 -17 15 8 4 15 -7 26 -17 25 -22 -1 -6 3 -11 8
-12 6 0 16 -4 24 -9 11 -7 13 -5 8 7 -8 22 -5 21 21 -2 12 -10 18 -22 14 -26
-4 -5 -2 -5 5 -2 6 4 23 3 37 -3 18 -7 26 -6 26 1 0 8 4 8 14 0 11 -9 16 -9
22 1 11 17 12 148 2 170 -5 10 -3 18 5 21 9 4 9 6 -1 6 -7 1 -10 6 -6 12 3 6
0 15 -7 20 -11 7 -11 9 3 9 10 0 16 7 15 19 0 11 -5 17 -9 15 -5 -3 -5 -10 -2
-16 4 -6 2 -8 -4 -5 -5 4 -8 16 -5 27 3 11 9 18 13 15 10 -6 5 48 -5 65 -5 9
-4 11 3 6 7 -4 12 -2 12 3 0 6 -4 11 -10 11 -5 0 -10 5 -10 11 0 5 5 7 11 3 8
-4 8 0 0 15 -9 17 -9 21 1 19 7 -2 11 4 9 12 -3 8 -5 25 -5 38 -1 12 -8 22
-16 23 -10 0 -8 3 5 9 18 8 18 9 2 9 -10 1 -15 6 -12 11 4 6 11 7 17 4 7 -4 8
-2 4 5 -4 6 -3 18 3 25 8 10 7 17 -6 27 -9 8 -14 9 -10 3 3 -6 0 -11 -8 -11
-12 0 -12 4 2 20 23 25 25 100 3 92 -11 -4 -10 -1 2 8 15 12 16 16 3 35 -11
15 -12 23 -4 28 7 4 9 3 6 -3 -3 -5 0 -10 8 -10 11 0 12 4 4 14 -9 10 -8 13 2
13 8 0 5 6 -7 15 -10 8 -14 15 -7 15 7 0 10 7 7 15 -5 13 -9 13 -23 3 -14 -11
-14 -11 -4 3 7 9 9 20 5 24 -4 5 -2 5 4 2 7 -4 14 3 16 18 3 13 2 22 -2 20 -5
-3 -10 2 -13 10 -4 8 -1 12 6 9 9 -3 13 7 12 31 0 19 -3 35 -7 35 -5 0 -8 -5
-8 -12 0 -6 -3 -8 -7 -4 -5 4 1 14 11 22 18 13 18 14 2 14 -9 0 -14 5 -11 10
4 6 12 8 18 4 7 -3 3 2 -7 10 -19 16 -19 16 -1 16 18 0 18 1 2 17 -16 16 -15
18 6 42 12 13 16 21 10 17 -7 -4 -13 -2 -13 4 0 7 -7 9 -16 6 -8 -3 -12 -2 -9
4 3 6 12 10 18 10 7 0 13 9 13 20 0 14 -5 19 -16 15 -11 -4 -11 -2 2 8 15 12
16 16 3 35 -11 15 -12 23 -4 28 7 4 9 3 6 -3 -3 -5 0 -10 8 -10 11 0 12 4 4
14 -9 10 -8 13 2 13 8 0 5 6 -7 15 -10 8 -14 15 -7 15 7 0 10 7 7 15 -5 13 -9
13 -23 3 -14 -11 -14 -11 -4 3 7 9 9 20 5 24 -4 5 -2 5 4 2 7 -4 14 3 16 18 3
13 2 22 -2 20 -5 -3 -10 2 -13 10 -4 8 -1 12 6 9 9 -3 13 7 12 31 0 24 -5 35
-15 36 -10 0 -8 3 5 9 18 8 18 9 2 9 -10 1 -15 6 -12 11 4 6 11 7 17 4 7 -4 8
-2 4 5 -4 6 -3 18 3 25 8 10 7 17 -6 27 -9 8 -14 9 -10 3 3 -6 0 -11 -8 -11
-12 0 -12 4 2 20 23 25 25 100 3 92 -11 -4 -10 -1 2 8 15 12 16 16 3 35 -11
15 -12 23 -4 28 7 4 9 3 6 -3 -3 -5 0 -10 8 -10 11 0 12 4 4 14 -9 10 -8 13 2
13 8 0 5 6 -7 15 -10 8 -14 15 -7 15 7 0 10 7 7 15 -5 13 -9 13 -23 3 -14 -11
-14 -11 -4 3 7 9 9 20 5 24 -4 5 -2 5 4 2 7 -4 14 3 16 18 3 13 2 22 -2 20 -5
-3 -10 2 -13 10 -4 8 -1 12 6 9 9 -3 13 7 12 31 0 19 -3 35 -7 35 -5 0 -8 -5
-8 -12 0 -6 -3 -8 -7 -4 -5 4 1 14 11 22 18 13 18 14 2 14 -9 0 -14 5 -11 10
4 6 12 8 18 4 7 -3 3 2 -7 10 -19 16 -19 16 -1 16 18 0 18 1 2 17 -16 16 -15
18 6 42 12 13 16 21 10 17 -7 -4 -13 -2 -13 4 0 7 -7 9 -16 6 -8 -3 -12 -2 -9
4 3 6 12 10 18 10 7 0 13 9 13 20 0 14 -5 19 -16 15 -11 -4 -11 -2 2 8 15 12
16 16 3 35 -11 15 -12 23 -4 28 7 4 9 3 6 -3 -3 -5 0 -10 8 -10 11 0 12 4 4
14 -9 10 -8 13 2 13 8 0 5 6 -7 15 -10 8 -14 15 -7 15 7 0 10 7 7 15 -5 13 -9
13 -23 3 -14 -11 -14 -11 -4 3 7 9 9 20 5 24 -4 5 -2 5 4 2 7 -4 14 3 16 18 3
13 2 22 -2 20 -5 -3 -10 2 -13 10 -4 8 -1 12 6 9 9 -3 13 7 12 31 0 24 -5 35
-15 36 -10 0 -8 3 5 9 18 8 18 9 2 9 -10 1 -15 6 -12 11 4 6 11 7 17 4 7 -4 8
-2 4 5 -4 6 -3 18 3 25 8 10 7 17 -6 27 -9 8 -14 9 -10 3 3 -6 -1 -11 -9 -11
-10 0 -7 9 12 28 15 16 22 29 15 33 -5 4 -8 13 -4 21 3 8 1 15 -4 15 -5 0 -10
7 -10 15 0 12 3 12 16 3 9 -7 13 -8 8 -3 -4 4 3 20 15 33 13 14 17 22 11 18
-7 -4 -13 -3 -13 2 0 6 18 9 41 9 23 -1 44 5 48 12 6 10 10 9 14 -4 4 -9 3
-13 -3 -10 -6 3 -10 1 -10 -5 0 -7 8 -9 19 -5 11 3 25 -1 34 -9 11 -11 17 -12
27 -3 10 9 11 9 6 0 -3 -6 -2 -14 4 -18 5 -3 10 2 10 12 0 15 2 15 9 3 6 -8 7
-19 3 -25 -3 -5 1 -4 10 3 13 10 18 10 24 1 5 -8 3 -9 -6 -4 -9 6 -11 4 -5 -5
6 -10 11 -9 23 6 14 18 14 18 8 -2 -4 -14 -2 -21 8 -21 9 0 13 4 10 8 -2 4 0
11 6 14 6 4 10 3 9 -2 -1 -4 -1 -16 0 -26 1 -15 3 -16 15 -5 8 7 11 18 8 23
-2 6 1 4 9 -4 11 -10 11 -15 2 -18 -21 -8 -15 -22 7 -16 11 3 20 0 20 -6 0
-15 27 -14 33 2 3 7 6 6 6 -5 1 -9 6 -20 13 -24 6 -4 9 -3 6 2 -4 5 5 10 18
10 24 2 24 1 7 -13 -10 -8 -12 -12 -5 -8 6 3 12 1 12 -6 0 -7 7 -4 16 7 8 10
12 13 9 6 -7 -14 24 -44 37 -36 5 3 8 1 8 -4 0 -5 7 -9 16 -9 14 0 14 2 -2 14
-10 7 -13 13 -6 13 6 0 17 -8 24 -19 13 -18 18 -21 39 -21 5 0 7 -5 3 -11 -4
-7 1 -7 16 1 12 7 20 8 16 2 -3 -5 1 -13 10 -16 8 -3 12 -2 9 4 -3 6 -1 10 4
10 6 0 11 -6 11 -13 0 -7 9 -18 20 -25 23 -14 25 -10 9 21 -7 14 1 9 22 -13
18 -19 36 -35 40 -35 4 0 11 -3 15 -7 4 -4 13 -3 21 4 11 9 12 7 7 -7 -5 -13
-4 -16 5 -11 7 5 21 0 32 -10 10 -9 19 -13 19 -8 0 5 4 4 8 -3 6 -10 14 -9 35
2 30 16 36 9 10 -11 -16 -11 -15 -12 10 -10 15 2 30 -1 34 -7 3 -6 1 -7 -5 -3
-6 3 -13 2 -16 -3 -7 -11 13 -9 32 2 8 6 15 0 21 -15 9 -21 10 -21 11 -3 1 19
2 19 9 1 4 -11 17 -20 28 -21 13 -1 19 3 16 11 -5 14 22 13 34 -1 4 -4 2 -5
-6 0 -10 6 -12 4 -7 -4 6 -8 12 -9 20 -2 7 6 17 7 21 3 5 -4 5 -1 1 6 -4 7
-12 9 -18 6 -7 -5 -8 -2 -4 5 5 7 11 10 14 7 3 -3 15 2 26 11 20 17 20 17 7 1
-8 -11 -9 -18 -3 -18 6 0 14 5 17 10 4 6 11 7 17 4 7 -5 8 -2 3 6 -6 10 -4 12
11 6 15 -6 17 -5 7 5 -7 7 -13 17 -13 22 0 5 7 1 16 -7 16 -17 39 -22 30 -7
-3 5 2 15 11 22 14 12 16 12 9 0 -6 -9 -5 -12 5 -9 8 3 13 11 11 18 -2 10 1
10 14 -1 12 -9 15 -9 10 -1 -7 11 5 17 28 13 5 -1 6 5 3 13 -4 9 -1 18 5 22 6
4 8 3 5 -2 -3 -6 -2 -16 4 -24 7 -13 9 -12 9 2 0 18 33 33 49 23 5 -3 12 -1
16 5 4 6 11 8 16 5 5 -4 13 4 18 17 6 13 10 18 10 11 1 -17 29 -5 34 15 4 14
5 14 6 -2 1 -19 1 -19 19 0 9 10 24 19 32 19 8 0 14 6 12 14 -3 12 0 12 12 2
11 -9 16 -9 22 0 5 8 3 9 -6 4 -9 -5 -11 -4 -6 4 6 9 11 9 24 -1 12 -10 14
-10 8 0 -4 7 -1 12 8 13 16 1 28 4 44 9 4 1 12 2 17 1 6 -1 1 6 -9 14 -23 18
-14 20 17 3 20 -10 21 -10 9 5 -12 14 -11 16 7 12 25 -5 72 17 67 31 -2 6 2
11 10 11 7 0 11 -3 9 -7 -2 -3 5 -6 15 -6 12 0 17 6 15 18 -2 10 0 18 6 18 5
0 9 -4 9 -10 0 -5 4 -10 9 -10 5 0 7 10 4 23 -4 20 -3 20 7 4 7 -12 16 -15 23
-9 18 13 91 16 83 3 -6 -10 14 -16 37 -12 5 1 6 -3 2 -9 -3 -6 -11 -8 -16 -5
-5 4 -9 -1 -9 -9 0 -8 5 -18 12 -22 7 -4 8 -3 4 4 -10 17 -1 15 13 -2 9 -11 9
-16 0 -22 -8 -5 -9 -3 -4 6 5 8 4 11 -2 7 -8 -5 -9 -30 -4 -80 1 -5 5 -5 11
-2 5 3 7 0 4 -9 -3 -9 -12 -12 -22 -8 -14 5 -15 4 -2 -10 8 -9 18 -14 22 -11
4 2 5 -3 2 -11 -3 -9 -10 -13 -15 -10 -5 3 -6 -2 -3 -10 3 -9 10 -13 15 -10 5
3 6 -2 3 -10 -3 -9 -12 -12 -22 -8 -14 5 -15 4 -2 -10 8 -9 18 -14 22 -11 4 2
5 -3 2 -11 -3 -9 -10 -13 -15 -10 -5 3 -6 -2 -3 -10 3 -9 10 -13 15 -10 5 3 6
-2 3 -10 -3 -9 -12 -12 -22 -8 -14 5 -15 4 -2 -10 8 -9 18 -14 22 -11 4 2 5
-3 2 -11 -3 -9 -10 -13 -15 -10 -5 3 -6 -2 -3 -10 3 -9 10 -13 15 -10 5 3 6
-2 3 -10 -3 -9 -12 -12 -22 -8 -14 5 -15 4 -2 -10 8 -9 18 -14 22 -11 4 2 5
-3 2 -11 -3 -9 -10 -13 -15 -10 -5 3 -6 -2 -3 -10 3 -9 10 -13 15 -10 5 3 6
-2 3 -10 -3 -9 -12 -12 -22 -8 -14 5 -15 4 -2 -10 8 -9 18 -14 22 -11 4 2 5
-3 2 -11 -3 -9 -10 -13 -15 -10 -5 3 -6 -2 -3 -10 3 -9 10 -13 15 -10 5 3 6
-2 3 -10 -3 -9 -12 -12 -22 -8 -14 5 -15 4 -2 -10 8 -9 18 -14 22 -11 4 2 5
-3 2 -11 -3 -9 -10 -13 -15 -10 -5 3 -6 -2 -3 -10 3 -9 10 -13 15 -10 5 3 6
-2 3 -10 -3 -9 -12 -12 -22 -8 -14 5 -15 4 -2 -10 8 -9 18 -14 22 -11 4 2 5
-3 2 -11 -3 -9 -10 -13 -15 -10 -5 3 -6 -2 -3 -10 3 -9 10 -13 15 -10 5 3 6
-2 3 -10 -3 -9 -12 -12 -22 -8 -14 5 -15 4 -2 -10 8 -9 20 -14 25 -11 6 2 3
-1 -6 -9 -12 -10 -15 -27 -11 -77 3 -43 0 -61 -7 -57 -5 4 -4 -6 4 -21 17 -32
19 -47 6 -39 -5 4 -7 -4 -3 -16 4 -16 2 -19 -8 -13 -9 5 -11 4 -6 -4 4 -6 12
-9 17 -6 5 4 9 -1 9 -10 0 -10 -5 -14 -12 -9 -10 5 -10 4 -1 -6 10 -11 9 -16
-5 -26 -15 -12 -14 -13 8 -9 24 4 24 4 6 -10 -17 -13 -17 -15 -3 -15 21 0 12
-27 -11 -33 -15 -4 -15 -5 1 -6 9 0 17 -6 17 -12 0 -5 -4 -8 -9 -5 -5 4 -8 -1
-7 -10 1 -8 9 -20 17 -25 12 -7 11 -9 -2 -9 -14 0 -15 -14 -12 -101 2 -63 0
-98 -6 -94 -6 3 -4 -7 4 -22 17 -32 19 -47 6 -39 -5 4 -7 -4 -3 -16 4 -16 2
-19 -8 -13 -9 5 -11 4 -6 -4 4 -6 12 -9 17 -6 5 4 9 -1 9 -10 0 -10 -5 -14
-12 -9 -10 5 -10 4 -1 -6 10 -11 9 -16 -5 -26 -15 -12 -14 -13 8 -9 24 4 24 4
6 -10 -17 -13 -17 -15 -3 -15 21 0 12 -27 -11 -33 -15 -4 -15 -5 1 -6 9 0 17
-6 17 -12 0 -5 -4 -8 -9 -5 -5 4 -8 -1 -7 -10 1 -8 9 -20 17 -25 12 -7 11 -9
-2 -9 -14 0 -15 -14 -12 -101 2 -71 0 -98 -8 -94 -6 4 -5 -2 2 -13 7 -12 17
-18 21 -16 4 3 8 0 8 -5 0 -6 -6 -11 -13 -11 -7 0 -13 -9 -14 -20 -1 -11 3
-20 8 -20 6 0 7 5 4 10 -3 6 -1 10 4 10 12 0 9 -35 -4 -47 -4 -5 -5 -2 0 6 5
9 4 12 -3 7 -17 -10 -15 -26 4 -26 8 0 12 -5 9 -10 -4 -6 -12 -8 -18 -4 -7 3
-3 -2 7 -10 16 -13 17 -16 4 -16 -14 0 -16 -11 -9 -53 0 -5 5 -5 11 -2 5 3 7
0 4 -9 -3 -9 -12 -12 -22 -8 -14 5 -15 4 -2 -10 8 -9 18 -14 22 -11 4 2 5 -3
2 -11 -3 -9 -10 -13 -15 -10 -5 3 -6 -2 -3 -10 3 -9 10 -13 15 -10 5 3 6 -2 3
-10 -3 -9 -12 -12 -22 -8 -14 5 -15 4 -2 -10 8 -9 18 -14 22 -11 4 2 5 -3 2
-11 -3 -9 -10 -13 -15 -10 -5 3 -6 -2 -3 -10 3 -9 10 -13 15 -10 5 3 6 -2 3
-10 -3 -9 -12 -12 -22 -8 -14 5 -15 4 -2 -10 8 -9 18 -14 22 -11 4 2 5 -3 2
-11 -3 -9 -10 -13 -15 -10 -5 3 -6 -2 -3 -10 3 -9 10 -13 15 -10 5 3 6 -2 3
-10 -3 -9 -12 -12 -22 -8 -14 5 -15 4 -2 -10 8 -9 18 -14 22 -11 4 2 5 -3 2
-11 -3 -9 -10 -13 -15 -10 -5 3 -6 -2 -3 -10 3 -9 10 -13 15 -10 5 3 6 -2 3
-10 -3 -9 -12 -12 -22 -8 -14 5 -15 4 -2 -10 8 -9 18 -14 22 -11 4 2 5 -3 2
-11 -3 -9 -10 -13 -15 -10 -5 3 -6 -2 -3 -10 3 -9 10 -13 15 -10 5 3 6 -2 3
-10 -3 -9 -12 -12 -22 -8 -14 5 -15 4 -2 -10 8 -9 18 -14 22 -11 4 2 5 -3 2
-11 -3 -9 -10 -13 -15 -10 -5 3 -6 -2 -3 -10 3 -9 10 -13 15 -10 5 3 6 -2 3
-10 -3 -9 -12 -12 -22 -8 -14 5 -15 4 -2 -10 8 -9 18 -14 22 -11 4 2 5 -3 2
-11 -3 -9 -10 -13 -15 -10 -5 3 -6 -2 -3 -10 3 -9 10 -13 15 -10 5 3 6 -2 3
-10 -3 -9 -9 -14 -13 -12 -4 3 -6 -11 -6 -29 0 -18 2 -31 4 -29 2 2 13 -4 24
-13 11 -10 18 -13 14 -7 -7 13 40 37 54 29 5 -4 9 -1 9 5 0 6 5 8 12 4 7 -5 8
-3 3 6 -5 8 -3 11 6 8 8 -3 22 -1 32 4 15 8 16 12 6 26 -11 14 -11 15 1 4 17
-15 54 -16 44 -1 -3 6 1 10 12 9 34 -4 43 0 69 28 21 22 25 23 20 7 -6 -19 -6
-19 8 -3 11 14 16 15 26 5 10 -9 11 -8 6 4 -4 10 -1 20 6 25 7 4 10 3 5 -4
-10 -17 23 -8 47 13 25 22 38 25 50 10 5 -6 7 0 4 13 -3 12 -1 20 3 17 5 -3
10 -2 13 2 2 5 3 3 1 -4 -3 -12 14 -12 34 0 7 5 9 14 5 20 -4 7 2 5 13 -3 10
-8 16 -10 12 -6 -5 5 1 16 12 23 11 8 17 19 14 25 -4 5 6 2 22 -8 19 -13 25
-14 19 -5 -6 11 -4 13 10 7 16 -6 16 -4 4 10 -13 16 -12 16 6 7 28 -13 50 -10
49 7 -1 11 9 15 37 14 27 -2 36 2 33 11 -3 7 0 16 6 20 6 3 10 3 9 -2 -4 -21
2 -33 15 -33 8 0 18 -9 21 -20 3 -11 11 -20 17 -20 11 0 -6 26 -31 48 -13 10
-13 12 0 12 15 -1 63 -69 54 -78 -3 -3 -5 0 -5 7 0 7 -5 9 -10 6 -6 -4 -8 -11
-4 -16 3 -5 0 -17 -8 -26 -11 -14 -11 -16 1 -8 11 6 13 4 8 -8 -3 -9 1 -23 9
-32 14 -13 14 -15 -2 -15 -16 0 -16 -1 2 -15 16 -13 16 -14 1 -9 -13 5 -16 2
-11 -10 3 -9 11 -13 18 -10 6 3 2 -2 -8 -10 -19 -15 -19 -16 -1 -16 18 0 18 0
0 -13 -14 -11 -15 -16 -5 -22 9 -5 11 -4 6 3 -4 7 -3 12 3 12 5 0 9 -9 8 -19
0 -11 -5 -17 -9 -15 -4 3 -8 0 -8 -5 0 -6 8 -11 18 -12 14 0 14 -2 -3 -9 -13
-6 -15 -9 -5 -9 13 -1 13 -2 0 -11 -10 -6 -11 -10 -2 -10 6 0 12 -5 12 -11 0
-5 -4 -8 -8 -5 -5 3 -9 -2 -9 -10 0 -9 6 -13 16 -9 8 3 12 3 9 -1 -4 -4 -3
-16 3 -28 9 -19 9 -19 -4 -3 -19 23 -22 22 -22 -7 0 -13 3 -22 6 -20 12 7 20
-29 9 -40 -8 -8 -9 -6 -5 7 4 9 3 17 -2 17 -5 0 -9 -15 -9 -34 0 -19 3 -33 7
-30 4 2 9 -3 12 -11 4 -9 1 -12 -7 -9 -7 3 -13 -2 -13 -10 0 -8 4 -13 8 -11 4
3 9 -2 12 -10 4 -9 1 -12 -9 -8 -7 3 -14 0 -14 -6 0 -6 6 -11 13 -11 8 0 7 -4
-3 -10 -12 -8 -12 -10 5 -11 16 0 17 -2 5 -7 -21 -9 -19 -45 2 -54 18 -7 15
-38 -4 -38 -6 0 -5 6 2 15 10 12 10 15 -2 15 -16 0 -19 -43 -4 -57 5 -5 6 -2
1 6 -6 10 -4 12 5 6 10 -6 10 -11 -4 -20 -14 -11 -15 -13 -1 -19 8 -3 15 -11
14 -18 0 -10 -2 -10 -6 0 -2 6 -9 12 -14 12 -14 0 -6 -24 11 -32 12 -5 10 -7
-5 -8 -19 0 -19 -1 3 -19 23 -17 23 -18 6 -36 -17 -17 -28 -59 -13 -50 12 8
20 -28 9 -39 -8 -8 -9 -6 -5 7 4 9 3 17 -2 17 -5 0 -9 -15 -9 -34 0 -19 3 -33
7 -30 4 2 10 -3 13 -11 3 -9 -1 -18 -9 -21 -20 -8 -8 -24 13 -18 15 5 15 4 -1
-6 -9 -6 -15 -15 -12 -21 4 -5 0 -9 -7 -9 -7 -1 -2 -7 12 -15 20 -11 21 -14 7
-15 -10 0 -15 -5 -12 -10 4 -6 12 -8 18 -4 7 3 3 -2 -8 -12 -17 -14 -17 -16
-2 -11 11 4 17 1 17 -8 0 -18 12 -19 28 -3 9 9 12 9 12 -1 0 -9 4 -8 15 3 9 8
22 13 30 10 9 -4 15 0 15 9 0 20 31 31 43 15 6 -9 7 -6 4 10 -5 19 -3 21 9 11
8 -6 18 -9 21 -5 4 4 1 12 -7 17 -12 9 -12 10 3 5 10 -3 21 -6 23 -6 3 0 2 -4
-1 -10 -3 -6 1 -7 9 -4 19 7 21 21 4 27 -7 3 -3 4 9 4 12 -1 19 -5 16 -10 -3
-5 4 -4 16 2 11 7 21 9 21 5 0 -3 6 -1 13 5 8 6 17 8 20 4 4 -3 7 1 7 9 0 11
7 14 25 10 15 -2 25 0 25 7 0 7 -5 9 -12 5 -6 -4 -8 -3 -5 3 4 6 17 8 31 6 13
-3 27 0 30 6 4 6 12 11 17 11 6 0 7 -5 3 -12 -4 -7 -3 -8 5 -4 7 5 9 16 5 28
-5 18 -4 19 9 7 8 -8 12 -18 9 -23 -3 -5 0 -6 7 -2 6 4 9 11 7 15 -3 4 -1 13
5 21 7 13 9 12 9 -2 0 -10 4 -18 9 -18 6 0 8 10 6 21 -4 21 -4 21 16 3 18 -16
19 -16 13 -1 -5 13 -2 16 12 10 12 -4 15 -3 10 5 -4 7 -2 12 3 12 6 0 11 -5
11 -11 0 -5 5 -7 10 -4 6 4 7 11 4 17 -4 6 1 6 14 -1 16 -9 23 -7 36 12 9 12
14 17 11 10 -3 -6 0 -15 6 -19 7 -4 9 -3 5 4 -3 6 6 19 21 29 31 21 41 22 62
9 10 -7 12 -6 6 4 -6 10 -4 12 9 7 14 -6 16 -3 10 15 -6 21 -6 21 10 5 23 -23
27 -22 58 11 25 27 64 41 51 18 -4 -6 0 -5 9 2 9 7 30 14 47 15 23 1 31 7 31
22 0 11 4 16 8 10 12 -16 35 -18 29 -2 -4 11 0 13 15 9 16 -4 19 -2 13 9 -7
11 -6 12 6 3 21 -15 44 -11 43 9 -1 12 2 14 14 8 19 -11 54 -2 45 12 -4 7 0 8
12 3 16 -6 16 -4 4 10 -13 16 -12 16 6 7 29 -16 34 -15 51 2 9 8 20 13 25 10
5 -4 9 -2 9 4 0 5 8 8 18 6 25 -4 35 5 22 20 -9 11 -7 12 9 8 12 -3 18 -10 14
-17 -3 -6 3 -3 14 6 11 10 27 18 37 18 9 0 15 3 13 8 -3 4 2 13 10 21 13 12
15 11 9 -10 -3 -13 -3 -18 0 -11 3 6 11 9 16 6 7 -5 8 -2 3 6 -6 10 -4 12 7 7
17 -6 61 20 54 32 -3 3 4 7 15 7 10 0 19 -5 20 -11 0 -5 4 -1 9 10 5 11 9 14
9 8 1 -7 6 -13 12 -13 5 0 7 5 3 11 -4 7 -1 10 7 7 8 -3 22 6 33 19 10 13 21
22 24 18 3 -3 -2 -11 -12 -18 -16 -12 -16 -13 3 -13 12 0 21 7 21 14 0 12 3
12 15 2 12 -10 14 -8 10 9 -3 18 -1 20 16 11 12 -7 19 -7 19 -1 0 6 7 7 17 4
11 -4 14 -3 9 5 -5 8 0 12 14 12 24 0 53 24 42 35 -4 5 -2 5 5 1 7 -4 11 -12
9 -19 -1 -7 -1 -9 1 -4 3 4 9 5 14 1 5 -3 12 2 15 10 3 9 10 16 16 16 5 0 6
-6 2 -13 -6 -9 -5 -9 8 0 8 7 19 9 23 5 5 -4 5 -1 1 6 -4 7 -12 9 -18 6 -6 -4
-8 -3 -5 3 3 5 19 8 36 7 22 -1 28 2 24 12 -3 8 0 14 6 14 6 0 11 -4 11 -8 0
-5 7 -9 15 -9 13 0 12 4 -2 21 -17 20 -17 20 0 7 9 -7 17 -10 17 -6 0 4 8 1
17 -6 10 -8 14 -9 10 -2 -4 6 -3 14 3 18 5 3 10 0 10 -7 1 -7 8 1 16 17 8 17
12 22 9 13 -6 -25 9 -22 29 5 13 17 16 18 12 4 -4 -12 -2 -17 6 -14 7 2 12 13
10 23 -3 19 -3 19 11 0 10 -13 16 -15 21 -8 4 7 5 16 2 21 -7 11 21 8 31 -4 4
-4 2 -5 -6 0 -9 5 -12 4 -7 -3 8 -13 46 5 46 22 0 4 -8 2 -17 -5 -15 -11 -16
-11 -6 1 13 14 44 23 40 12 -1 -4 3 -7 8 -7 6 0 8 6 7 14 -3 12 -1 13 11 3 11
-9 19 -8 37 8 26 22 45 27 34 8 -5 -9 -3 -9 9 1 9 7 15 17 12 21 -2 4 7 5 22
2 16 -3 24 -1 20 5 -11 17 17 33 46 27 20 -3 29 0 34 13 4 10 11 21 17 25 14
9 16 99 2 91 -5 -4 -7 1 -3 11 4 10 7 20 7 22 0 3 5 2 12 -2 7 -4 8 -3 4 5 -6
9 -11 9 -24 -1 -13 -11 -14 -11 -8 0 4 7 2 20 -6 30 -12 15 -11 16 5 3 9 -8
21 -11 24 -7 4 4 1 11 -6 15 -8 5 -10 14 -5 22 10 17 12 99 2 105 -4 3 -5 -1
-2 -9 7 -19 -12 -32 -22 -16 -4 8 -3 9 4 5 14 -8 12 20 -3 44 -8 13 -7 13 8 1
10 -8 21 -11 24 -7 4 4 1 11 -6 15 -8 5 -10 14 -5 22 11 18 12 119 1 119 -4 0
-6 -9 -2 -19 7 -22 -10 -37 -21 -20 -5 8 -3 9 6 4 10 -6 12 -4 6 10 -4 11 0
26 11 38 11 12 12 17 4 12 -11 -6 -13 -4 -8 9 4 10 7 20 7 22 0 3 5 2 12 -2 7
-4 8 -3 4 5 -6 8 -12 9 -20 2 -9 -8 -12 -6 -11 9 1 11 5 23 10 27 4 5 5 2 1
-4 -4 -7 -2 -13 3 -13 14 0 14 17 1 25 -8 5 -8 11 0 20 8 10 8 15 -1 21 -8 5
-9 3 -4 -6 6 -9 4 -11 -4 -6 -7 5 -10 11 -7 14 3 3 0 12 -7 21 -11 14 -10 14
6 2 9 -8 21 -11 24 -7 4 4 1 11 -6 15 -8 5 -10 14 -5 22 11 18 12 119 1 119
-4 0 -6 -9 -2 -19 7 -22 -10 -37 -21 -20 -5 8 -3 9 6 4 10 -6 12 -4 6 10 -4
11 0 26 11 38 11 12 12 17 4 12 -11 -6 -13 -4 -8 9 4 10 7 20 7 22 0 3 5 2 12
-2 7 -4 8 -3 4 5 -6 8 -12 9 -20 2 -9 -8 -12 -6 -11 9 1 11 5 23 10 27 4 5 5
2 1 -5 -4 -6 -2 -12 3 -12 14 0 14 17 1 25 -8 5 -8 11 0 20 8 10 8 15 -1 21
-8 5 -9 3 -4 -6 6 -9 4 -11 -4 -6 -7 5 -10 11 -7 14 3 3 0 12 -7 21 -11 14
-10 14 6 2 9 -8 21 -11 24 -7 4 4 1 11 -6 15 -8 5 -10 14 -5 22 11 18 12 119
1 119 -4 0 -6 -9 -2 -19 7 -22 -10 -37 -21 -20 -5 8 -3 9 6 4 10 -6 12 -4 6
10 -4 11 0 26 11 38 11 12 12 17 4 12 -11 -6 -13 -4 -8 9 4 10 7 20 7 22 0 3
5 2 12 -2 7 -4 8 -3 4 5 -6 8 -12 9 -20 2 -9 -8 -12 -6 -11 9 1 11 5 23 10 27
4 5 5 2 1 -4 -4 -7 -2 -13 3 -13 14 0 14 17 1 25 -8 5 -8 11 0 20 8 10 8 15
-1 21 -8 5 -9 3 -4 -6 6 -9 4 -11 -4 -6 -7 5 -10 11 -7 14 3 3 0 12 -7 21 -11
14 -10 14 6 2 9 -8 21 -11 24 -7 4 4 1 11 -6 15 -8 5 -10 14 -5 22 11 18 12
119 1 119 -4 0 -6 -9 -2 -19 7 -22 -10 -37 -21 -20 -5 8 -3 9 6 4 10 -6 12 -4
6 10 -4 11 0 26 11 38 11 12 12 17 4 12 -11 -6 -13 -4 -8 9 4 10 7 20 7 22 0
3 5 2 12 -2 7 -4 8 -3 4 5 -6 8 -12 9 -20 2 -9 -8 -12 -6 -11 9 1 11 5 23 10
27 4 5 5 2 1 -4 -4 -7 -2 -13 3 -13 14 0 14 17 1 25 -8 5 -8 11 0 20 8 10 8
15 -1 21 -8 5 -9 3 -4 -6 6 -9 4 -11 -4 -6 -7 5 -10 11 -7 14 3 3 0 12 -7 21
-11 14 -10 14 6 2 9 -8 21 -11 24 -7 4 4 1 11 -6 15 -8 5 -10 14 -5 22 11 18
12 119 1 119 -4 0 -6 -9 -2 -19 7 -22 -10 -37 -21 -20 -5 8 -3 9 6 4 10 -6 12
-4 6 10 -4 11 0 26 11 38 11 12 12 17 4 12 -11 -6 -13 -4 -8 9 4 10 7 20 7 22
0 3 5 2 12 -2 7 -4 8 -3 4 5 -6 8 -12 9 -20 2 -9 -8 -12 -6 -11 9 1 11 5 23
10 27 4 5 5 2 1 -4 -4 -7 -2 -13 3 -13 14 0 14 17 1 25 -8 5 -8 11 0 20 8 10
8 15 -1 21 -8 5 -9 3 -4 -6 6 -9 4 -11 -4 -6 -7 5 -10 11 -7 14 3 3 0 12 -7
21 -11 14 -10 14 6 2 9 -8 21 -11 24 -7 4 4 1 11 -6 15 -8 5 -10 14 -5 22 11
18 12 119 1 119 -4 0 -6 -9 -2 -19 7 -22 -10 -37 -21 -20 -5 8 -3 9 6 4 10 -6
12 -4 6 10 -4 11 0 26 11 38 11 12 12 17 4 12 -11 -6 -13 -4 -8 9 4 10 7 20 7
22 0 3 5 2 12 -2 7 -4 8 -3 4 5 -6 8 -12 9 -20 2 -9 -8 -12 -6 -11 9 1 11 5
23 10 27 4 5 5 2 1 -4 -4 -7 -2 -13 3 -13 14 0 14 17 1 25 -8 5 -8 11 0 20 8
10 8 15 -1 21 -8 5 -9 3 -4 -6 6 -9 4 -11 -4 -6 -7 5 -10 11 -7 14 3 3 0 12
-7 21 -11 14 -10 14 6 2 9 -8 21 -11 24 -7 4 4 1 11 -6 15 -8 5 -10 14 -5 22
11 18 12 119 1 119 -4 0 -6 -9 -2 -19 7 -22 -10 -37 -21 -20 -5 8 -3 9 6 4 10
-6 12 -4 6 10 -4 11 0 26 11 38 11 12 12 17 4 12 -11 -6 -13 -4 -8 9 4 10 7
20 7 22 0 3 5 2 12 -2 7 -4 8 -3 4 5 -6 8 -12 9 -20 2 -9 -8 -12 -6 -11 9 1
11 5 23 10 27 4 5 5 2 1 -4 -4 -7 -2 -13 3 -13 14 0 14 17 1 25 -8 5 -8 11 0
20 8 10 8 15 -1 21 -8 5 -9 3 -4 -6 6 -9 4 -11 -4 -6 -7 5 -10 11 -7 14 3 3 0
12 -7 21 -11 14 -10 14 6 2 9 -8 21 -11 24 -7 4 4 1 11 -6 15 -8 5 -10 14 -5
22 11 18 12 119 1 119 -4 0 -6 -9 -2 -19 7 -22 -10 -37 -21 -20 -5 8 -3 9 6 4
10 -6 12 -4 6 10 -4 11 0 26 11 38 11 12 12 17 4 12 -11 -6 -13 -4 -8 9 4 10
7 20 7 22 0 3 5 2 12 -2 7 -4 8 -3 4 5 -6 8 -12 9 -20 2 -9 -8 -12 -6 -11 9 1
11 5 23 10 27 4 5 5 2 1 -4 -4 -7 -2 -13 3 -13 14 0 14 17 1 25 -8 5 -8 11 0
20 8 10 8 15 -1 21 -8 5 -9 3 -4 -6 6 -9 4 -11 -4 -6 -7 5 -10 11 -7 14 3 3 0
12 -7 21 -11 14 -10 14 6 2 9 -8 21 -11 24 -7 4 4 1 11 -6 15 -8 5 -10 14 -5
22 11 18 12 119 1 119 -4 0 -6 -9 -2 -19 7 -22 -10 -37 -21 -20 -5 8 -3 9 6 4
10 -6 12 -4 6 10 -4 11 0 26 11 38 11 12 12 17 4 12 -11 -6 -13 -4 -8 9 4 10
7 20 7 22 0 3 5 2 12 -2 7 -4 8 -3 4 5 -6 8 -12 9 -20 2 -9 -8 -12 -6 -11 9 1
11 5 23 10 27 4 5 5 2 1 -4 -4 -7 -2 -13 3 -13 14 0 14 17 1 25 -8 5 -8 11 0
20 8 10 8 15 -1 21 -8 5 -9 3 -4 -6 6 -9 4 -11 -4 -6 -7 5 -10 11 -7 14 3 3 0
12 -7 21 -11 14 -10 14 6 2 9 -8 21 -11 24 -7 4 4 1 11 -6 15 -8 5 -10 14 -5
22 11 18 12 119 1 119 -4 0 -6 -9 -2 -19 7 -22 -10 -37 -21 -20 -5 8 -3 9 6 4
10 -6 12 -4 6 10 -4 11 0 26 11 38 11 12 12 17 4 12 -11 -6 -13 -4 -8 9 4 10
7 20 7 22 0 3 5 2 12 -2 7 -4 8 -3 4 5 -6 8 -12 9 -20 2 -9 -8 -12 -6 -11 9 1
11 5 23 10 27 4 5 5 2 1 -4 -4 -7 -2 -13 3 -13 14 0 14 17 1 25 -8 5 -8 11 0
20 8 10 8 15 -1 21 -8 5 -9 3 -4 -6 6 -9 4 -11 -4 -6 -7 5 -10 11 -7 14 3 3 0
12 -7 21 -11 14 -10 14 6 2 9 -8 21 -11 24 -7 4 4 1 11 -6 15 -8 5 -10 14 -5
22 11 18 12 119 1 119 -4 0 -6 -9 -2 -19 7 -22 -10 -37 -21 -20 -5 8 -3 9 6 4
10 -6 12 -4 6 10 -4 11 0 26 11 38 11 12 12 17 4 12 -11 -6 -13 -4 -8 9 4 10
7 20 7 22 0 3 5 2 12 -2 7 -4 8 -3 4 5 -6 8 -12 9 -20 2 -9 -8 -12 -6 -11 9 1
11 5 23 10 27 4 5 5 2 1 -4 -4 -7 -2 -13 3 -13 14 0 14 17 1 25 -8 5 -8 11 0
20 8 10 8 15 -1 21 -8 5 -9 3 -4 -6 6 -9 4 -11 -4 -6 -7 5 -10 11 -7 14 3 3 0
12 -7 21 -11 14 -10 14 6 2 9 -8 21 -11 24 -7 4 4 1 11 -6 15 -8 5 -10 14 -5
22 11 18 12 119 1 119 -4 0 -6 -9 -2 -19 7 -22 -10 -37 -21 -20 -5 8 -3 9 6 4
10 -6 12 -4 6 10 -4 11 0 26 11 38 11 12 12 17 4 12 -11 -6 -13 -4 -8 9 4 10
7 20 7 22 0 3 5 2 12 -2 7 -4 8 -3 4 5 -6 8 -12 9 -20 2 -9 -8 -12 -6 -11 9 1
11 5 23 10 27 4 5 5 2 1 -4 -4 -7 -2 -13 3 -13 14 0 14 17 1 25 -8 5 -8 11 0
20 8 10 8 15 -1 21 -8 5 -9 3 -4 -6 6 -9 4 -11 -4 -6 -7 5 -10 11 -7 14 3 3 0
12 -7 21 -11 14 -10 14 6 2 9 -8 21 -11 24 -7 4 4 1 11 -6 15 -8 5 -10 14 -5
22 11 18 12 119 1 119 -4 0 -6 -9 -2 -19 7 -22 -10 -37 -21 -20 -5 8 -3 9 6 4
10 -6 12 -4 6 10 -4 11 0 26 11 38 11 12 12 17 4 12 -11 -6 -13 -4 -8 9 4 10
7 20 7 22 0 3 5 2 12 -2 7 -4 8 -3 4 5 -6 8 -12 9 -20 2 -9 -8 -12 -6 -11 9 1
11 5 23 10 27 4 5 5 2 1 -4 -4 -7 -2 -13 3 -13 14 0 14 17 1 25 -8 5 -8 11 0
20 8 10 8 15 -1 21 -8 5 -9 3 -4 -6 6 -9 4 -11 -4 -6 -7 5 -10 11 -7 14 3 3 0
12 -7 21 -11 14 -10 14 6 2 9 -8 21 -11 24 -7 4 4 1 11 -6 15 -8 5 -10 14 -5
22 11 18 12 119 1 119 -4 0 -6 -9 -2 -19 7 -22 -10 -37 -21 -20 -5 8 -3 9 6 4
10 -6 12 -4 6 10 -4 11 0 26 11 38 11 12 12 17 4 12 -11 -6 -13 -4 -8 9 4 10
7 20 7 22 0 3 5 2 12 -2 7 -4 8 -3 4 5 -6 8 -12 9 -20 2 -9 -8 -12 -6 -11 9 1
11 5 23 10 27 4 5 5 2 1 -4 -4 -7 -2 -13 3 -13 14 0 14 17 1 25 -8 5 -8 11 0
20 8 10 8 15 -1 21 -8 5 -9 3 -4 -6 6 -9 4 -11 -4 -6 -7 5 -10 11 -7 14 3 3 0
12 -7 21 -11 14 -10 14 6 2 9 -8 21 -11 24 -7 4 4 1 11 -6 15 -8 6 -10 14 -5
22 15 26 11 93 -8 115 -15 17 -16 21 -4 21 8 0 13 -4 10 -9 -3 -4 -1 -8 5 -8
5 0 9 9 8 20 -1 11 -4 20 -8 20 -4 0 -10 10 -13 23 l-7 22 -16 -22 c-8 -13
-21 -23 -27 -23 -7 0 -6 4 2 9 11 7 10 9 -3 14 -9 4 -13 3 -10 -3 3 -6 2 -10
-4 -10 -6 0 -8 -8 -5 -17 5 -16 4 -16 -6 0 -11 17 -14 17 -35 3 -18 -12 -25
-13 -29 -3 -3 6 -4 3 -1 -8 4 -16 0 -21 -17 -22 -19 -2 -20 0 -8 8 12 9 11 9
-5 3 -11 -4 -27 -7 -36 -8 -9 0 -15 -6 -12 -13 5 -11 -29 -19 -60 -14 -4 1
-10 -6 -13 -14 -3 -8 -10 -12 -15 -9 -5 3 -9 -1 -9 -8 0 -9 -3 -9 -10 2 -8 13
-10 12 -10 -3 0 -10 -5 -15 -11 -12 -5 4 -20 -1 -31 -12 -12 -10 -18 -13 -15
-6 4 6 2 15 -4 19 -7 4 -9 3 -6 -3 4 -6 -1 -17 -10 -24 -15 -12 -16 -12 -10 5
6 16 5 17 -7 6 -9 -6 -14 -16 -13 -20 1 -4 -2 -9 -8 -10 -5 -1 -18 -8 -29 -15
-12 -9 -26 -11 -42 -5 -25 10 -40 -2 -28 -21 4 -8 0 -8 -15 0 -16 9 -21 9 -21
0 0 -7 -12 -10 -30 -7 -17 3 -33 1 -36 -4 -8 -13 -24 -10 -22 4 2 7 -7 14 -19
16 -23 3 -27 11 -24 45 1 9 -4 17 -11 17 -9 0 -9 3 2 10 11 7 11 10 2 10 -8 0
-10 5 -5 13 14 22 11 37 -9 48 -14 8 -16 14 -9 23 7 9 7 17 -2 26 -10 12 -9
12 6 1 13 -11 15 -17 6 -27 -9 -11 -8 -14 3 -14 20 0 18 41 -2 58 -8 8 -10 11
-3 8 6 -4 14 -2 18 4 3 5 0 10 -7 10 -10 0 -9 3 2 11 12 8 10 10 -10 5 -24 -5
-24 -4 -6 9 22 17 30 45 13 45 -7 0 -5 5 3 10 12 8 12 10 -5 11 l-20 0 20 9
c14 6 16 9 5 10 -8 2 -18 2 -23 1 -4 -1 -2 8 5 18 7 11 15 18 18 16 3 -2 6 7
5 21 0 14 -7 29 -15 34 -12 8 -12 10 5 10 19 0 18 2 -4 19 -16 12 -20 20 -12
25 9 6 9 12 -1 24 -12 15 -11 16 5 3 13 -10 15 -17 6 -27 -9 -11 -8 -14 3 -14
20 0 18 41 -2 58 -8 8 -10 11 -3 8 6 -4 14 -2 18 4 3 5 0 10 -7 10 -10 0 -9 3
2 11 12 8 10 10 -10 5 -24 -5 -24 -4 -6 9 21 16 31 45 15 45 -5 0 -9 5 -9 11
0 5 4 8 8 5 17 -10 5 54 -12 67 -14 10 -16 16 -7 21 9 6 9 12 -1 24 -12 15
-11 16 5 3 13 -10 15 -17 6 -27 -9 -11 -8 -14 3 -14 20 0 18 41 -2 58 -8 8
-10 11 -3 8 6 -4 14 -2 18 4 3 5 0 10 -7 10 -10 0 -9 3 2 11 12 8 10 10 -10 5
l-25 -5 25 20 c14 12 18 17 10 13 -13 -7 -13 -5 -1 9 11 14 11 17 0 17 -11 0
-11 2 1 10 11 7 11 10 2 10 -8 0 -10 5 -5 13 11 17 13 38 3 32 -11 -7 -18 15
-12 38 4 14 7 16 13 5 6 -9 8 -6 6 10 -1 15 -6 21 -17 17 -10 -3 -10 -1 3 9
14 10 15 15 5 19 -10 4 -10 8 2 16 10 7 11 11 3 11 -7 0 -13 6 -13 14 0 8 -5
18 -10 21 -7 4 -9 -3 -5 -22 5 -24 4 -25 -4 -6 -6 13 -17 20 -28 18 -10 -2
-24 -4 -30 -4 -7 -1 -13 -9 -13 -18 0 -10 -4 -14 -8 -8 -4 6 -14 11 -22 13
-10 3 -9 -3 5 -19 11 -12 13 -19 6 -14 -28 16 -63 12 -71 -10 -6 -13 -9 -15
-10 -5 0 13 -2 13 -9 0 -6 -8 -7 -18 -4 -23 3 -5 -7 -1 -23 9 -19 13 -25 14
-19 5 6 -11 4 -13 -8 -8 -8 3 -21 0 -27 -8 -6 -8 -17 -12 -25 -9 -7 3 -16 0
-21 -7 -4 -7 -3 -10 4 -5 6 3 13 2 16 -3 7 -11 -13 -9 -33 3 -11 7 -13 5 -8
-8 4 -9 3 -15 -2 -12 -4 3 -16 -3 -26 -14 -10 -11 -22 -20 -28 -20 -5 0 1 9
14 21 l24 20 -25 -7 c-14 -4 -27 -10 -30 -14 -6 -8 -61 -24 -74 -21 -5 1 -6
-5 -3 -12 4 -11 0 -13 -14 -10 -11 3 -19 0 -19 -7 0 -9 -3 -10 -13 -1 -8 6
-17 7 -21 3 -4 -4 -13 -7 -19 -7 -7 0 -11 -8 -11 -18 2 -15 -1 -16 -14 -5 -14
11 -15 10 -8 -6 7 -20 6 -20 -14 -1 -18 16 -20 17 -14 2 5 -13 2 -16 -10 -11
-19 7 -22 -12 -3 -20 6 -3 3 -4 -8 -3 -13 1 -19 -3 -17 -12 3 -12 0 -12 -12
-1 -19 15 -20 21 -5 17 6 -1 14 5 16 13 4 13 3 13 -6 0 -6 -8 -11 -11 -11 -6
0 5 -12 -3 -27 -18 -14 -14 -28 -24 -31 -21 -3 3 3 12 14 21 18 14 18 15 -3 4
-21 -10 -27 -21 -24 -42 1 -8 -26 -4 -36 6 -4 4 -2 6 6 4 7 -2 16 4 18 12 4
13 3 13 -6 0 -6 -8 -11 -11 -11 -7 0 16 -40 -14 -40 -30 0 -14 -2 -14 -16 3
-8 10 -12 13 -8 5 5 -11 3 -13 -11 -7 -16 6 -16 4 -4 -10 13 -16 12 -16 -7 -6
-19 10 -24 8 -38 -11 -9 -13 -13 -15 -10 -5 4 11 1 16 -9 14 -20 -3 -48 -26
-42 -36 2 -4 -7 -5 -22 -2 -18 3 -24 1 -19 -7 7 -11 -4 -15 -39 -11 -16 2 -17
0 -6 -14 12 -14 12 -16 -3 -10 -9 3 -16 10 -16 16 0 5 -4 7 -9 3 -6 -3 -8 -14
-6 -25 2 -12 0 -18 -6 -15 -5 4 -7 11 -4 16 4 5 2 9 -3 9 -4 0 -16 -15 -25
-32 -11 -21 -16 -26 -14 -13 1 11 6 23 11 27 5 3 -2 5 -16 5 -18 -2 -24 -6
-20 -16 3 -9 1 -12 -6 -7 -8 4 -12 0 -12 -11 -1 -17 -1 -17 -11 0 -5 9 -15 17
-22 17 -7 0 -6 -4 3 -10 13 -8 13 -10 -2 -11 -18 -1 -30 -4 -45 -9 -5 -1 -12
-2 -17 -1 -5 1 -6 -5 -2 -14 5 -13 2 -14 -17 -4 -21 12 -21 11 -7 -7 8 -10 10
-16 6 -12 -5 4 -15 3 -22 -2 -17 -15 -56 -21 -48 -8 4 6 1 9 -7 6 -8 -3 -13
-14 -12 -24 1 -10 0 -13 -3 -6 -9 19 -34 15 -28 -5 5 -17 5 -17 -6 -1 -10 17
-45 14 -35 -2 3 -5 1 -11 -5 -15 -5 -3 -10 -1 -10 5 0 6 -4 9 -10 5 -5 -3 -7
-13 -4 -23 5 -16 5 -16 -5 0 -12 18 -48 17 -43 -2 2 -8 -3 -10 -13 -7 -9 4
-15 1 -15 -8 0 -8 -5 -15 -11 -15 -5 0 -8 4 -5 8 3 5 -1 9 -9 9 -8 0 -11 -5
-8 -10 4 -6 0 -8 -10 -4 -10 3 -17 2 -17 -3 0 -6 5 -10 12 -10 6 0 8 -3 5 -6
-4 -4 -13 -1 -21 5 -11 9 -16 9 -23 -1 -4 -7 -17 -14 -28 -16 -11 -1 -28 -3
-37 -4 -9 -1 -15 -5 -12 -10 7 -10 -27 -25 -54 -22 -19 1 -21 -2 -16 -20 6
-20 6 -20 -8 -2 -15 19 -15 19 -36 -2 -13 -13 -22 -17 -23 -10 0 7 -4 4 -9 -7
-6 -14 -9 -15 -10 -5 0 12 -3 11 -11 -3 -7 -12 -17 -16 -30 -12 -11 4 -19 2
-19 -5 0 -8 -10 -10 -24 -8 -17 3 -23 1 -19 -8 3 -8 -4 -11 -22 -9 -16 1 -35
-5 -44 -14 -10 -10 -23 -15 -29 -13 -7 2 -12 -1 -12 -7 0 -6 -5 -11 -11 -11
-5 0 -7 4 -4 10 3 6 -1 7 -9 4 -9 -3 -16 -10 -16 -16 0 -5 4 -7 9 -3 5 3 13 0
17 -7 4 -7 4 -10 -1 -6 -4 4 -15 2 -23 -5 -13 -9 -14 -9 -8 1 4 7 2 12 -4 12
-6 0 -8 5 -4 12 4 7 3 8 -4 4 -7 -4 -12 -14 -12 -23 0 -13 -2 -14 -17 -2 -14
12 -16 12 -11 -1 3 -8 -4 -24 -14 -35 -14 -14 -18 -15 -13 -4 4 10 0 19 -10
23 -9 3 -18 -1 -22 -10 -5 -13 -8 -13 -15 -2 -7 9 -8 7 -5 -10 3 -12 1 -19 -4
-16 -6 3 -16 1 -24 -6 -10 -8 -15 -8 -21 1 -4 7 -3 9 3 6 6 -4 17 1 24 11 13
15 12 16 -3 3 -10 -7 -18 -10 -18 -6 0 4 -7 2 -15 -5 -8 -6 -19 -9 -25 -5 -6
4 -10 3 -9 -2 3 -20 -2 -31 -18 -38 -15 -5 -16 -4 -5 6 6 7 12 17 12 22 0 5
-7 1 -16 -7 -8 -9 -22 -17 -30 -17 -8 -1 -18 -3 -24 -4 -5 -1 -16 -3 -22 -4
-8 -1 -5 -8 7 -18 17 -14 18 -15 2 -9 -10 3 -27 1 -38 -4 -12 -7 -19 -7 -19
-1 0 6 -12 -1 -26 -14 -15 -14 -31 -25 -36 -25 -5 0 1 10 14 23 13 12 17 16 8
10 -9 -7 -21 -13 -27 -13 -6 0 -13 -7 -17 -15 -6 -16 -26 -16 -39 0 -5 6 -7 0
-4 -13 3 -12 1 -20 -4 -16 -5 3 -17 7 -28 9 -15 3 -18 -1 -14 -18 5 -22 5 -22
-11 -2 -10 11 -14 14 -10 6 5 -11 3 -13 -10 -8 -9 4 -14 3 -11 -2 3 -5 1 -12
-5 -16 -5 -3 -10 -1 -10 4 0 6 -5 11 -11 11 -5 0 -7 -4 -4 -10 3 -5 1 -10 -5
-10 -6 0 -9 -4 -5 -9 8 -14 -9 -21 -25 -10 -11 6 -12 9 -2 9 7 0 10 5 7 11 -5
6 -13 2 -22 -11 -12 -17 -17 -19 -24 -9 -7 11 -9 10 -9 -3 0 -10 5 -18 12 -18
6 0 8 -3 5 -6 -4 -4 -14 -1 -22 6 -12 10 -19 10 -27 2 -9 -9 -9 -12 2 -12 7 0
10 -3 7 -6 -4 -4 -13 -1 -22 6 -11 9 -15 9 -15 1 0 -7 -4 -9 -10 -6 -5 3 -10
1 -10 -4 0 -6 -5 -11 -11 -11 -5 0 -7 6 -3 13 6 9 5 9 -8 0 -8 -7 -19 -9 -23
-5 -5 4 -5 1 -1 -6 4 -7 11 -10 16 -7 5 3 11 1 14 -4 4 -5 -2 -8 -11 -7 -10 2
-21 -2 -25 -8 -5 -7 -8 -4 -8 7 0 10 -5 15 -11 12 -6 -4 -8 -13 -5 -20 2 -7
-3 -12 -12 -11 -9 0 -16 -5 -14 -12 1 -8 -2 -11 -7 -7 -6 3 -8 12 -4 20 4 11
1 13 -11 9 -9 -3 -16 -14 -16 -23 0 -14 -2 -14 -10 -1 -9 14 -15 7 -11 -14 1
-5 -5 -3 -14 4 -13 11 -14 10 -9 -5 6 -14 4 -16 -7 -10 -22 14 -50 14 -39 0 8
-9 4 -12 -15 -10 -14 2 -28 -2 -32 -7 -4 -7 -1 -8 7 -3 9 5 11 4 6 -4 -6 -8
-12 -9 -20 -2 -9 8 -18 6 -32 -5 -18 -14 -18 -14 6 -4 24 10 24 10 6 -4 -14
-11 -23 -13 -32 -5 -8 7 -14 6 -20 -2 -5 -8 -3 -9 6 -4 9 5 11 4 6 -4 -6 -9
-11 -9 -24 1 -14 11 -15 10 -9 -6 7 -17 6 -17 -10 -5 -14 12 -16 12 -8 0 6
-11 3 -13 -15 -8 -17 4 -20 3 -11 -6 6 -6 11 -16 11 -21 0 -6 -4 -5 -9 3 -11
17 -55 -4 -44 -22 4 -7 0 -7 -10 2 -19 15 -23 26 -5 15 7 -5 8 -3 3 6 -6 10
-11 10 -20 -3 -7 -9 -15 -14 -18 -10 -4 3 -7 1 -7 -5 0 -7 -7 -12 -16 -12 -9
0 -12 -5 -8 -12 4 -7 3 -8 -5 -4 -9 6 -9 11 1 24 12 14 10 14 -9 3 -13 -6 -23
-17 -23 -24 0 -8 -3 -8 -9 2 -5 7 -14 10 -20 7 -6 -4 -11 0 -11 8 0 9 -9 16
-20 16 -12 0 -33 8 -47 18 -15 9 -24 12 -20 5 4 -6 3 -15 -3 -18 -6 -4 -10 -3
-9 2 3 17 -1 33 -8 32 -23 -4 -43 2 -38 11 6 9 -8 14 -29 11 -4 -1 -15 4 -24
11 -12 10 -14 10 -8 1 4 -7 2 -13 -3 -13 -6 0 -11 6 -11 14 0 14 -34 29 -61
27 -9 -1 -19 5 -22 13 -4 9 -13 13 -22 10 -8 -3 -15 -1 -15 5 0 15 -27 14 -33
-1 -3 -8 -6 -5 -6 5 -1 10 -5 15 -11 12 -5 -3 -10 -1 -10 4 0 14 -70 45 -94
42 -13 -2 -16 1 -11 11 6 10 5 10 -5 1 -14 -13 -43 -6 -34 8 3 5 -4 9 -15 9
-12 0 -21 5 -21 11 0 5 -4 8 -9 4 -6 -3 -20 5 -32 17 -15 16 -20 18 -16 6 3
-9 0 -19 -8 -22 -9 -3 -12 0 -9 8 3 7 -6 20 -20 29 -21 14 -27 15 -39 3 -11
-12 -16 -11 -27 8 -8 11 -14 24 -13 27 1 3 -9 5 -22 3 -16 -1 -25 3 -25 12 0
17 -16 19 -26 2 -5 -7 -3 -8 6 -3 9 5 11 4 6 -4 -6 -9 -11 -9 -22 0 -17 14
-19 23 -2 13 7 -4 8 -3 4 5 -4 6 -12 9 -17 6 -5 -4 -9 -1 -9 5 0 6 -4 9 -9 5
-5 -3 -17 2 -25 11 -9 8 -16 11 -16 6 0 -6 -8 -13 -17 -17 -15 -5 -16 -4 -5 6
16 17 15 30 -2 23 -8 -3 -17 -1 -21 5 -3 6 -17 11 -31 11 -18 0 -23 4 -18 13
5 7 0 6 -11 -3 -10 -8 -16 -10 -12 -4 4 7 0 17 -8 24 -8 7 -15 9 -15 5 0 -4
-11 0 -25 9 -14 9 -25 14 -25 10 0 -4 -6 -1 -14 5 -11 9 -16 9 -22 0 -5 -8
-12 -5 -24 11 -17 22 -57 39 -44 19 3 -5 10 -6 16 -3 7 4 8 2 4 -4 -9 -15 -36
-4 -36 15 0 8 -4 11 -10 8 -5 -3 -10 -1 -10 5 0 6 -4 9 -9 5 -5 -3 -17 2 -25
11 -9 8 -16 11 -16 6 0 -6 -7 -13 -16 -16 -13 -5 -14 -4 -5 7 8 11 5 16 -15
25 -29 14 -60 16 -67 5 -2 -5 -2 -2 -1 5 2 7 -4 15 -14 18 -9 3 -25 10 -34 15
-24 12 -31 11 -22 -3 4 -7 -2 -5 -14 5 -11 11 -25 16 -30 13 -5 -3 -23 8 -40
24 -30 27 -37 28 -32 5 1 -5 -7 -1 -18 10 -13 14 -16 22 -8 27 8 6 8 8 -1 8
-6 0 -15 -5 -19 -11 -4 -8 -9 -7 -15 2 -8 12 -11 11 -20 -1 -9 -13 -10 -12 -5
3 6 20 -30 39 -64 32 -11 -2 -18 0 -15 6 4 5 -1 9 -9 9 -9 0 -16 5 -16 10 0
13 -33 13 -47 -1 -8 -8 -13 -8 -18 0 -3 6 -1 10 6 9 6 -2 14 4 17 12 2 8 1 12
-3 8 -5 -4 -15 -2 -23 5 -8 6 -27 12 -41 13 -15 0 -32 4 -39 8 -7 4 -16 5 -21
2 -5 -3 -15 2 -22 12 -13 15 -12 16 3 4 9 -7 19 -9 21 -4 3 4 -7 13 -23 19
-24 9 -28 8 -23 -5 4 -10 2 -13 -5 -8 -7 4 -12 14 -12 23 0 13 -2 14 -17 2 -9
-8 -14 -9 -11 -4 3 6 0 16 -8 23 -8 7 -14 9 -14 3 0 -5 -7 -12 -16 -15 -15 -6
-15 -4 -3 11 12 15 12 16 -4 10 -10 -4 -16 -3 -12 3 9 15 -30 31 -43 18 -9 -9
-12 -8 -12 5 0 9 -6 17 -14 17 -8 0 -17 6 -20 13 -3 6 -4 1 -1 -13 3 -14 2
-19 -1 -12 -3 6 -12 12 -20 12 -9 0 -13 4 -10 8 2 4 -4 13 -14 20 -11 7 -21 8
-25 2 -7 -11 -35 -2 -35 12 0 6 8 4 18 -3 15 -13 16 -12 4 3 -8 10 -22 15 -38
12 -17 -3 -24 0 -24 11 0 8 -5 15 -11 15 -5 0 -7 -4 -4 -10 3 -5 -1 -10 -9
-10 -8 0 -18 5 -22 12 -5 7 -3 8 6 3 9 -5 11 -4 6 4 -4 6 -12 9 -17 6 -5 -4
-9 -3 -9 2 0 4 -12 13 -26 20 -22 10 -24 10 -13 -3 10 -12 9 -13 -5 -8 -9 3
-16 11 -16 16 0 6 -11 8 -24 4 -22 -5 -44 8 -44 27 0 5 -3 11 -6 14 -3 4 -6
-1 -6 -10 0 -10 -4 -17 -10 -17 -5 0 -9 3 -9 8 4 26 -2 32 -22 21 -12 -6 -19
-7 -15 -1 3 5 -1 15 -9 22 -8 7 -15 9 -15 4 0 -5 -5 -2 -11 6 -9 13 -10 13 -6
0 2 -8 10 -14 16 -12 7 1 10 -2 6 -8 -8 -13 -45 10 -45 28 0 7 -5 10 -10 7 -6
-4 -7 -12 -3 -18 3 -7 -3 -4 -14 6 -11 9 -24 14 -28 10 -5 -5 -3 1 5 12 8 11
11 17 6 13 -5 -4 -18 -3 -29 3 -14 8 -18 8 -13 0 4 -6 2 -11 -3 -11 -10 0 -15
14 -12 33 0 4 -2 6 -6 6 -5 -1 -21 -1 -36 0 -20 1 -26 5 -21 14 5 7 0 6 -11
-3 -15 -12 -17 -12 -10 -1 6 11 3 13 -13 9 -16 -4 -19 -2 -15 10 4 9 2 13 -4
9 -16 -10 -44 3 -37 17 3 6 -2 2 -12 -9 -16 -20 -16 -20 -11 3 3 13 3 21 0 18
-4 -3 -13 0 -22 7 -14 11 -14 10 -2 -6 12 -15 12 -17 -3 -11 -9 3 -16 10 -16
15 0 5 -6 8 -12 7 -7 -2 -12 2 -11 9 2 7 -6 10 -17 8 -10 -2 -30 5 -44 16 -13
10 -31 16 -40 13 -10 -4 -16 -1 -16 7 0 11 -3 11 -10 -1 -9 -13 -10 -13 -11 0
-1 8 -1 18 0 23 2 11 -17 8 -25 -4 -4 -8 -9 -7 -15 2 -8 12 -11 11 -20 -1 -8
-12 -9 -11 -5 6 7 22 5 22 -53 27 -18 1 -38 10 -45 18 -12 16 -38 30 -71 36
-10 2 -23 9 -27 16 -4 6 -8 8 -8 3 0 -5 -7 -3 -15 4 -9 7 -18 10 -22 7 -3 -4
-11 1 -18 10 -9 13 -14 13 -20 3z m80 -50 c3 -6 -1 -7 -9 -4 -18 7 -21 14 -7
14 6 0 13 -4 16 -10z m39 -16 c3 -8 2 -12 -4 -9 -6 3 -10 10 -10 16 0 14 7 11
14 -7z m36 -9 c13 -14 21 -25 18 -25 -2 0 -15 11 -28 25 -13 14 -21 25 -18 25
2 0 15 -11 28 -25z m254 -93 c2 -4 -4 -8 -14 -8 -10 0 -16 4 -14 8 3 4 9 8 14
8 5 0 11 -4 14 -8z m6593 -17 c0 -8 -4 -12 -9 -9 -5 3 -6 10 -3 15 9 13 12 11
12 -6z m-6537 -15 c0 -5 -5 -10 -11 -10 -5 0 -7 5 -4 10 3 6 8 10 11 10 2 0 4
-4 4 -10z m6304 -18 c3 -5 -1 -9 -9 -9 -8 0 -12 4 -9 9 3 4 7 8 9 8 2 0 6 -4
9 -8z m-6774 -67 c14 -19 14 -19 -2 -6 -10 7 -18 18 -18 24 0 6 1 8 3 6 1 -2
9 -13 17 -24z m6480 -39 c0 -2 -6 -9 -14 -15 -11 -9 -16 -9 -22 0 -4 7 -3 9 4
5 6 -3 13 -2 17 4 6 10 15 14 15 6z m-5396 -142 c3 -8 2 -12 -4 -9 -6 3 -10
10 -10 16 0 14 7 11 14 -7z m4996 -14 c0 -5 -5 -10 -11 -10 -5 0 -7 5 -4 10 3
6 8 10 11 10 2 0 4 -4 4 -10z m-6080 -45 c14 -19 14 -19 -2 -6 -10 7 -18 18
-18 24 0 6 1 8 3 6 1 -2 9 -13 17 -24z m1245 6 c3 -5 2 -12 -3 -15 -5 -3 -9 1
-9 9 0 17 3 19 12 6z m123 -72 c-3 -8 -7 -3 -11 10 -4 17 -3 21 5 13 5 -5 8
-16 6 -23z m5663 -6 c13 -16 12 -17 -3 -4 -10 7 -18 15 -18 17 0 8 8 3 21 -13z
m-1227 -14 c3 -3 -4 -5 -14 -6 -11 -1 -22 2 -24 6 -5 8 30 8 38 0z m-4177 -74
c4 -4 3 -5 -4 -2 -6 4 -13 2 -15 -5 -3 -8 -6 -6 -10 4 -7 17 15 19 29 3z
m3883 -21 c0 -8 -19 -13 -24 -6 -3 5 1 9 9 9 8 0 15 -2 15 -3z m-5510 -59 c14
-19 14 -19 -2 -6 -10 7 -18 18 -18 24 0 6 1 8 3 6 1 -2 9 -13 17 -24z m7035
-24 c3 -5 2 -12 -3 -15 -5 -3 -9 1 -9 9 0 17 3 19 12 6z m-4900 -110 c3 -5 0
-13 -6 -17 -7 -4 -9 -3 -5 4 3 5 0 13 -6 15 -9 4 -10 6 -1 6 6 1 14 -3 18 -8z
m-2135 -106 c14 -19 14 -19 -2 -6 -10 7 -18 18 -18 24 0 6 1 8 3 6 1 -2 9 -13
17 -24z m2409 -12 c2 -1 -5 -1 -16 0 -11 0 -20 7 -20 14 0 10 4 10 16 1 9 -7
18 -13 20 -15z m5354 7 c3 -11 1 -18 -4 -14 -5 3 -9 12 -9 20 0 20 7 17 13 -6z
m-5336 -22 c-3 -8 -6 -5 -6 6 -1 11 2 17 5 13 3 -3 4 -12 1 -19z m5248 2 c-3
-5 -12 -10 -18 -10 -7 0 -6 4 3 10 19 12 23 12 15 0z m-2985 -4 c0 -3 -4 -8
-10 -11 -5 -3 -10 -1 -10 4 0 6 5 11 10 11 6 0 10 -2 10 -4z m-86 -34 c3 -5
-1 -9 -9 -9 -8 0 -12 4 -9 9 3 4 7 8 9 8 2 0 6 -4 9 -8z m3169 -33 c-8 -8 -13
-7 -18 2 -5 8 -4 10 3 5 7 -4 12 -2 12 5 0 7 3 9 7 6 4 -4 2 -12 -4 -18z
m-353 -43 c0 -2 -8 -10 -17 -17 -16 -13 -17 -12 -4 4 13 16 21 21 21 13z m357
-11 c0 -8 -4 -12 -9 -9 -5 3 -6 10 -3 15 9 13 12 11 12 -6z m-4992 -15 c3 -5
1 -10 -4 -10 -6 0 -11 5 -11 10 0 6 2 10 4 10 3 0 8 -4 11 -10z m4456 -37 c13
-16 12 -17 -3 -4 -10 7 -18 15 -18 17 0 8 8 3 21 -13z m-158 -10 c-7 -2 -19
-2 -25 0 -7 3 -2 5 12 5 14 0 19 -2 13 -5z m-7083 -28 c14 -19 14 -19 -2 -6
-10 7 -18 18 -18 24 0 6 1 8 3 6 1 -2 9 -13 17 -24z m7134 -7 c-3 -4 -11 -5
-19 -1 -21 7 -19 12 4 10 11 0 18 -5 15 -9z m-4124 -19 c0 -5 -4 -9 -8 -9 -5
0 -9 7 -9 15 0 8 4 12 9 9 4 -3 8 -9 8 -15z m45 -11 c5 4 5 1 1 -6 -6 -10 -11
-10 -22 -1 -8 6 -14 14 -14 16 0 3 6 0 13 -6 8 -6 18 -7 22 -3z m163 -83 c-3
-3 -9 2 -12 12 -6 14 -5 15 5 6 7 -7 10 -15 7 -18z m-3218 -120 c14 -19 14
-19 -2 -6 -10 7 -18 18 -18 24 0 6 1 8 3 6 1 -2 9 -13 17 -24z m7777 10 c0 -8
-4 -12 -9 -9 -5 3 -6 10 -3 15 9 13 12 11 12 -6z m-7777 -250 c14 -19 14 -19
-2 -6 -10 7 -18 18 -18 24 0 6 1 8 3 6 1 -2 9 -13 17 -24z m7777 -70 c0 -8 -4
-12 -9 -9 -5 3 -6 10 -3 15 9 13 12 11 12 -6z m-7777 -170 c14 -19 14 -19 -2
-6 -10 7 -18 18 -18 24 0 6 1 8 3 6 1 -2 9 -13 17 -24z m7777 -150 c0 -8 -4
-12 -9 -9 -5 3 -6 10 -3 15 9 13 12 11 12 -6z m-7777 -90 c14 -19 14 -19 -2
-6 -10 7 -18 18 -18 24 0 6 1 8 3 6 1 -2 9 -13 17 -24z m0 -240 c14 -19 14
-19 -2 -6 -10 7 -18 18 -18 24 0 6 1 8 3 6 1 -2 9 -13 17 -24z m7777 10 c0 -8
-4 -12 -9 -9 -5 3 -6 10 -3 15 9 13 12 11 12 -6z m-7777 -250 c14 -19 14 -19
-2 -6 -10 7 -18 18 -18 24 0 6 1 8 3 6 1 -2 9 -13 17 -24z m7777 -70 c0 -8 -4
-12 -9 -9 -5 3 -6 10 -3 15 9 13 12 11 12 -6z m-7777 -170 c14 -19 14 -19 -2
-6 -10 7 -18 18 -18 24 0 6 1 8 3 6 1 -2 9 -13 17 -24z m7777 -150 c0 -8 -4
-12 -9 -9 -5 3 -6 10 -3 15 9 13 12 11 12 -6z m-7777 -90 c14 -19 14 -19 -2
-6 -10 7 -18 18 -18 24 0 6 1 8 3 6 1 -2 9 -13 17 -24z m2573 -139 c6 -15 -17
-16 -30 -1 -4 4 -2 5 5 1 6 -4 12 -2 12 3 0 15 7 14 13 -3z m1829 -28 c-8 -8
-9 -4 -5 13 4 13 8 18 11 10 2 -7 -1 -18 -6 -23z m-1888 -20 c-3 -4 -11 -8
-17 -7 -9 0 -9 2 0 5 7 3 9 13 6 22 -4 14 -3 14 5 2 6 -8 8 -18 6 -22z m1736
-22 c0 -2 -8 -10 -17 -17 -16 -13 -17 -12 -4 4 13 16 21 21 21 13z m-4250 -31
c14 -19 14 -19 -2 -6 -10 7 -18 18 -18 24 0 6 1 8 3 6 1 -2 9 -13 17 -24z
m7777 10 c0 -8 -4 -12 -9 -9 -5 3 -6 10 -3 15 9 13 12 11 12 -6z m-5290 -22
c-4 -3 -2 -12 4 -19 10 -13 -6 -32 -18 -20 -4 3 -1 6 6 6 7 0 9 5 6 10 -4 6
-12 7 -18 3 -7 -4 -6 0 2 10 7 9 16 17 19 17 3 0 2 -3 -1 -7z m2023 -33 c0 -5
-2 -10 -4 -10 -3 0 -8 5 -11 10 -3 6 -1 10 4 10 6 0 11 -4 11 -10z m-1492 -35
c-3 -3 -9 2 -12 12 -6 14 -5 15 5 6 7 -7 10 -15 7 -18z m-518 -19 c0 -2 -8
-10 -17 -17 -16 -13 -17 -12 -4 4 13 16 21 21 21 13z m1410 -40 c0 -3 -4 -8
-10 -11 -5 -3 -10 -1 -10 4 0 6 5 11 10 11 6 0 10 -2 10 -4z m-648 -38 c-7 -7
-12 -8 -12 -2 0 14 12 26 19 19 2 -3 -1 -11 -7 -17z m108 -34 c0 -8 -19 -13
-24 -6 -3 5 1 9 9 9 8 0 15 -2 15 -3z m-3370 -29 c14 -19 14 -19 -2 -6 -10 7
-18 18 -18 24 0 6 1 8 3 6 1 -2 9 -13 17 -24z m7777 -70 c0 -8 -4 -12 -9 -9
-5 3 -6 10 -3 15 9 13 12 11 12 -6z m-7777 -170 c14 -19 14 -19 -2 -6 -10 7
-18 18 -18 24 0 6 1 8 3 6 1 -2 9 -13 17 -24z m7777 -150 c0 -8 -4 -12 -9 -9
-5 3 -6 10 -3 15 9 13 12 11 12 -6z m-7777 -90 c14 -19 14 -19 -2 -6 -10 7
-18 18 -18 24 0 6 1 8 3 6 1 -2 9 -13 17 -24z m4510 -5 c0 -5 -2 -10 -4 -10
-3 0 -8 5 -11 10 -3 6 -1 10 4 10 6 0 11 -4 11 -10z m-2 -45 c-3 -3 -9 2 -12
12 -6 14 -5 15 5 6 7 -7 10 -15 7 -18z m-4508 -190 c14 -19 14 -19 -2 -6 -10
7 -18 18 -18 24 0 6 1 8 3 6 1 -2 9 -13 17 -24z m7777 10 c0 -8 -4 -12 -9 -9
-5 3 -6 10 -3 15 9 13 12 11 12 -6z m-5277 -109 c0 -2 -8 -10 -17 -17 -16 -13
-17 -12 -4 4 13 16 21 21 21 13z m2010 -106 c0 -5 -2 -10 -4 -10 -3 0 -8 5
-11 10 -3 6 -1 10 4 10 6 0 11 -4 11 -10z m-4515 -40 c1 -10 -2 -17 -6 -14 -4
2 -7 13 -6 24 2 23 10 17 12 -10z m4515 0 c0 -5 -2 -10 -4 -10 -3 0 -8 5 -11
10 -3 6 -1 10 4 10 6 0 11 -4 11 -10z m-2 -45 c-3 -3 -9 2 -12 12 -6 14 -5 15
5 6 7 -7 10 -15 7 -18z m3269 -20 c0 -8 -4 -12 -9 -9 -5 3 -6 10 -3 15 9 13
12 11 12 -6z m-7782 -144 c3 -5 2 -12 -3 -15 -5 -3 -9 1 -9 9 0 17 3 19 12 6z
m7782 -176 c0 -8 -4 -12 -9 -9 -5 3 -6 10 -3 15 9 13 12 11 12 -6z m-3267 -55
c0 -5 -2 -10 -4 -10 -3 0 -8 5 -11 10 -3 6 -1 10 4 10 6 0 11 -4 11 -10z m0
-40 c0 -5 -2 -10 -4 -10 -3 0 -8 5 -11 10 -3 6 -1 10 4 10 6 0 11 -4 11 -10z
m-4484 -22 c3 -4 -1 -5 -10 -4 -8 1 -18 5 -22 8 -3 4 1 5 10 4 8 -1 18 -5 22
-8z m4482 -23 c-3 -3 -9 2 -12 12 -6 14 -5 15 5 6 7 -7 10 -15 7 -18z m-4398
-35 c0 -5 -2 -10 -4 -10 -3 0 -8 5 -11 10 -3 6 -1 10 4 10 6 0 11 -4 11 -10z
m60 -4 c0 -3 -4 -8 -10 -11 -5 -3 -10 -1 -10 4 0 6 5 11 10 11 6 0 10 -2 10
-4z m17 -21 c0 -8 -4 -12 -9 -9 -5 3 -6 10 -3 15 9 13 12 11 12 -6z m83 -15
c0 -5 -2 -10 -4 -10 -3 0 -8 5 -11 10 -3 6 -1 10 4 10 6 0 11 -4 11 -10z
m7507 -105 c0 -8 -4 -12 -9 -9 -5 3 -6 10 -3 15 9 13 12 11 12 -6z m-7027 -81
c0 -8 -5 -12 -10 -9 -6 4 -8 11 -5 16 9 14 15 11 15 -7z m3760 12 c0 -3 -4 -8
-10 -11 -5 -3 -10 -1 -10 4 0 6 5 11 10 11 6 0 10 -2 10 -4z m-3720 -10 c0 -2
-7 -7 -16 -10 -8 -3 -12 -2 -9 4 6 10 25 14 25 6z m60 -26 c0 -5 -4 -10 -10
-10 -5 0 -10 5 -10 10 0 6 5 10 10 10 6 0 10 -4 10 -10z m1650 -4 c0 -2 -8
-10 -17 -17 -16 -13 -17 -12 -4 4 13 16 21 21 21 13z m-1576 -27 c9 8 13 7 13
-3 0 -17 -30 -14 -33 3 -2 7 0 7 3 1 3 -7 9 -8 17 -1z m266 -73 c0 -2 -8 -10
-17 -17 -16 -13 -17 -12 -4 4 13 16 21 21 21 13z m1300 -26 c8 -15 8 -18 -3
-14 -8 3 -14 11 -14 19 0 20 4 19 17 -5z m-1123 -55 c0 -8 -4 -12 -9 -9 -5 3
-6 10 -3 15 9 13 12 11 12 -6z m61 -17 c-2 -7 5 -12 16 -11 12 1 15 -2 8 -9
-7 -7 -17 -6 -32 5 -20 14 -18 18 8 26 1 1 1 -5 0 -11z m6349 -13 c0 -8 -4
-12 -9 -9 -5 3 -6 10 -3 15 9 13 12 11 12 -6z m-6027 -95 c0 -5 -2 -10 -4 -10
-3 0 -8 5 -11 10 -3 6 -1 10 4 10 6 0 11 -4 11 -10z m24 -18 c3 -5 -1 -9 -9
-9 -8 0 -12 4 -9 9 3 4 7 8 9 8 2 0 6 -4 9 -8z m3441 -12 c-3 -5 -12 -10 -18
-10 -7 0 -6 4 3 10 19 12 23 12 15 0z m-66 -23 c8 -10 7 -14 -2 -14 -8 0 -14
6 -14 14 0 7 1 13 2 13 2 0 8 -6 14 -13z m2628 -12 c0 -8 -4 -12 -9 -9 -5 3
-6 10 -3 15 9 13 12 11 12 -6z m-5716 -62 c13 -16 12 -17 -3 -4 -17 13 -22 21
-14 21 2 0 10 -8 17 -17z m425 -28 c-1 -13 -4 -27 -7 -30 -5 -4 -4 41 0 53 4
10 8 -2 7 -23z m2381 -27 c-3 -8 -6 -5 -6 6 -1 11 2 17 5 13 3 -3 4 -12 1 -19z
m2913 -22 c0 -2 -8 -10 -17 -17 -16 -13 -17 -12 -4 4 13 16 21 21 21 13z
m-5295 -16 c3 -5 1 -10 -4 -10 -6 0 -11 5 -11 10 0 6 2 10 4 10 3 0 8 -4 11
-10z m2275 0 c0 -5 -10 -15 -22 -21 l-23 -12 20 21 c23 24 25 25 25 12z
m-2350 -25 c11 -13 10 -14 -4 -9 -9 3 -16 10 -16 15 0 13 6 11 20 -6z m5367
-4 c0 -11 -5 -18 -9 -15 -4 3 -5 11 -1 19 7 21 12 19 10 -4z m-5287 -6 c0 -12
-19 -12 -23 0 -4 9 -1 12 9 8 7 -3 14 -7 14 -8z m2027 -45 c9 -14 10 -21 1
-26 -7 -4 -8 -3 -4 4 4 7 3 12 -2 12 -6 0 -12 7 -16 15 -8 22 7 18 21 -5z
m2778 -168 c-3 -3 -11 0 -18 7 -9 10 -8 11 6 5 10 -3 15 -9 12 -12z m-1955
-212 c0 -5 -5 -10 -11 -10 -5 0 -7 5 -4 10 3 6 8 10 11 10 2 0 4 -4 4 -10z
m1240 -55 c-7 -8 -17 -15 -23 -15 -6 0 -2 7 9 15 25 19 30 19 14 0z m-166 -73
c3 -5 -1 -9 -9 -9 -8 0 -12 4 -9 9 3 4 7 8 9 8 2 0 6 -4 9 -8z m-260 -97 c-4
-8 -11 -15 -16 -15 -6 0 -5 6 2 15 7 8 14 15 16 15 2 0 1 -7 -2 -15z m-806
-220 c-3 -3 -9 2 -12 12 -6 14 -5 15 5 6 7 -7 10 -15 7 -18z m62 -49 c0 -3 -4
-8 -10 -11 -5 -3 -10 -1 -10 4 0 6 5 11 10 11 6 0 10 -2 10 -4z"/>
<path d="M2710 9801 c0 -6 4 -12 8 -15 5 -3 9 1 9 9 0 8 -4 15 -9 15 -4 0 -8
-4 -8 -9z"/>
<path d="M3499 9457 c7 -7 14 -8 21 -1 6 6 2 10 -12 11 -16 2 -18 -1 -9 -10z"/>
<path d="M8190 9240 c-8 -5 -12 -11 -9 -14 2 -3 11 -1 19 4 8 5 12 11 9 14 -2
3 -11 1 -19 -4z"/>
<path d="M4075 9220 c3 -5 8 -10 11 -10 2 0 4 5 4 10 0 6 -5 10 -11 10 -5 0
-7 -4 -4 -10z"/>
<path d="M4450 9066 c0 -2 6 -9 14 -15 11 -9 16 -9 22 0 4 8 3 9 -4 5 -7 -4
-12 -2 -12 3 0 6 -4 11 -10 11 -5 0 -10 -2 -10 -4z"/>
<path d="M4505 9040 c3 -5 8 -10 11 -10 2 0 4 5 4 10 0 6 -5 10 -11 10 -5 0
-7 -4 -4 -10z"/>
<path d="M7615 9020 c-3 -5 -1 -10 4 -10 6 0 11 5 11 10 0 6 -2 10 -4 10 -3 0
-8 -4 -11 -10z"/>
<path d="M7315 8900 c3 -5 8 -10 11 -10 2 0 4 5 4 10 0 6 -5 10 -11 10 -5 0
-7 -4 -4 -10z"/>
<path d="M5250 8731 c0 -5 5 -13 10 -16 6 -3 10 -2 10 4 0 5 -4 13 -10 16 -5
3 -10 2 -10 -4z"/>
<path d="M9815 8710 c-3 -5 -15 -10 -26 -10 -11 0 -17 -5 -14 -10 4 -7 14 -6
28 2 12 7 26 11 30 10 5 -1 6 2 2 8 -8 13 -12 13 -20 0z"/>
<path d="M6380 6290 c-9 -6 -10 -10 -3 -10 6 0 15 5 18 10 8 12 4 12 -15 0z"/>
<path d="M5007 5899 c7 -7 15 -10 18 -7 3 3 -2 9 -12 12 -14 6 -15 5 -6 -5z"/>
<path d="M5007 4939 c7 -7 15 -10 18 -7 3 3 -2 9 -12 12 -14 6 -15 5 -6 -5z"/>
<path d="M3090 4531 c0 -5 5 -13 10 -16 6 -3 10 -2 10 4 0 5 -4 13 -10 16 -5
3 -10 2 -10 -4z"/>
<path d="M7576 4033 c-6 -14 -5 -15 5 -6 7 7 10 15 7 18 -3 3 -9 -2 -12 -12z"/>
<path d="M10205 3811 c-3 -5 -1 -12 5 -16 5 -3 10 -2 10 4 0 5 10 8 21 6 12
-3 19 -1 15 2 -11 11 -45 13 -51 4z"/>
<path d="M7826 3251 c-4 -5 1 -8 9 -7 21 3 31 16 12 16 -9 0 -18 -4 -21 -9z"/>
<path d="M8710 3245 c-11 -13 -10 -14 4 -9 9 3 16 10 16 15 0 13 -6 11 -20 -6z"/>
<path d="M8544 3183 c-10 -7 -13 -13 -7 -13 7 0 15 5 18 10 4 6 10 8 15 5 5
-3 11 -2 14 3 8 13 -19 10 -40 -5z"/>
</g>
</svg>
